<svg width="108" height="108" viewBox="0 0 108 108" fill="none" xmlns="http://www.w3.org/2000/svg">
<path d="M75.6191 6.30703V28.4772C75.0476 35.5487 71.0476 41.8557 64.9524 45.487C63.2381 46.4427 61.3334 47.2071 59.4286 47.7805V26.9482C59.4286 19.4945 63.6191 12.4229 70.0953 8.60049C71.8096 7.45376 73.7143 6.88039 75.6191 6.30703ZM81.3334 0C76.1905 0 71.4286 1.33785 67.4286 3.63132C59.4286 8.21825 53.9048 17.0099 53.9048 26.7571V53.8964C58.8572 53.8964 63.6191 52.5586 67.6191 50.2651C75.2381 45.8693 80.5715 37.8422 81.1429 28.6683V5.54254C81.1429 2.86683 83.4286 0.573366 86.2857 0.573366C86.4762 0.573366 86.6667 0.573366 86.8572 0.573366C84.9524 0.191122 83.0477 0 81.3334 0Z" fill="#6ECB98"/>
<path d="M28.381 32.1085C35.4286 32.6819 41.7143 36.6954 45.3333 42.8113C46.2857 44.5314 47.0476 46.4427 47.619 48.3539H26.8571C19.4286 48.3539 12.381 44.1492 8.57143 37.6511C7.61905 35.931 6.85714 34.0197 6.28571 32.1085H28.381ZM0.571429 21.0234C0.190476 22.7435 0 24.6548 0 26.3749V26.566C0 31.5351 1.33333 36.3132 3.61905 40.3268C8.19048 48.3539 16.9524 53.8964 26.6667 53.8964H53.7143C53.7143 48.9273 52.381 44.1492 50.0952 40.1356C45.7143 32.4908 37.7143 27.1393 28.5714 26.566H5.52381C2.85714 26.566 0.571429 24.2725 0.571429 21.4057C0.571429 21.4057 0.571429 21.2146 0.571429 21.0234Z" fill="#FFDA00"/>
<path d="M48.1905 60.2035V81.0358C48.1905 88.4896 44 95.5611 37.5238 99.3835C35.8095 100.339 33.9048 101.104 32 101.677V79.5068C32.5714 72.4353 36.5714 66.1283 42.6667 62.497C44.5714 61.5414 46.2857 60.7769 48.1905 60.2035ZM53.7143 53.8965C48.7619 53.8965 44 55.2343 40 57.5278C32.3809 61.9236 27.0476 69.9507 26.4762 79.1246V102.441C26.4762 105.117 24.1905 107.411 21.3333 107.411C21.1429 107.411 20.9524 107.411 20.7619 107.411C22.4762 107.793 24.3809 107.984 26.0952 107.984H26.2857C31.2381 107.984 36 106.646 40 104.353C48 99.7658 53.5238 90.9742 53.5238 81.2269V53.8965H53.7143Z" fill="#D85C72"/>
<path d="M80.7619 59.439C88.1905 59.439 95.2381 63.6437 99.0476 70.1419C100 71.862 100.762 73.7732 101.333 75.6844H79.2381C72.1905 75.111 65.9048 71.0975 62.2857 64.9816C61.3333 63.2615 60.5714 61.3502 60 59.439H80.7619ZM80.7619 53.8965H53.7143C53.7143 58.8657 55.0476 63.6437 57.3333 67.6573C61.7143 75.3022 69.7143 80.6536 78.8572 81.2269H102.095C104.762 81.2269 107.048 83.5204 107.048 86.3872C107.048 86.5784 107.048 86.7695 107.048 86.9606C107.429 85.2405 107.619 83.3293 107.619 81.6092V81.4181C107.619 76.4489 106.286 71.6708 104 67.6573C99.2381 59.439 90.6667 53.8965 80.7619 53.8965Z" fill="#5B87DA"/>
</svg>
