<svg width="1071" height="716" viewBox="0 0 1071 716" fill="none" xmlns="http://www.w3.org/2000/svg" class="logo">
<path d="M348.487 29.0656V131.236C345.854 163.825 327.42 192.89 299.33 209.625C291.43 214.029 282.652 217.552 273.874 220.194V124.19C273.874 89.8393 293.186 57.2505 323.031 39.635C330.931 34.3503 339.709 31.708 348.487 29.0656ZM374.821 0C351.12 0 329.175 6.16544 310.742 16.7348C273.874 37.8734 248.418 78.3892 248.418 123.309V248.379C271.241 248.379 293.186 242.214 311.619 231.644C346.731 211.387 371.31 174.394 373.943 132.117V25.5425C373.943 13.2117 384.477 2.64233 397.644 2.64233C398.522 2.64233 399.399 2.64233 400.277 2.64233C391.499 0.880777 382.721 0 374.821 0Z" fill="#6ECB98"/>
<path d="M130.792 147.971C163.271 150.613 192.238 169.109 208.917 197.294C213.306 205.221 216.817 214.029 219.45 222.837H123.77C89.5357 222.837 57.057 203.46 39.501 173.513C35.112 165.586 31.6008 156.778 28.9674 147.971H130.792V147.971ZM2.6334 96.8856C0.877801 104.813 0 113.62 0 121.547V122.428C0 145.328 6.1446 167.348 16.6782 185.844C37.7454 222.837 78.1243 248.379 122.892 248.379H247.54C247.54 225.479 241.395 203.46 230.862 184.963C210.672 149.732 173.805 125.07 131.67 122.428H25.4562C13.167 122.428 2.6334 111.859 2.6334 98.6471C2.6334 98.6471 2.6334 97.7663 2.6334 96.8856Z" fill="#FFDA00"/>
<path d="M222.084 277.445V373.45C222.084 407.8 202.772 440.389 172.927 458.004C165.027 462.408 156.249 465.931 147.471 468.574V366.404C150.104 333.815 168.538 304.749 196.627 288.014C205.405 283.611 213.306 280.087 222.084 277.445ZM247.54 248.379C224.717 248.379 202.772 254.545 184.338 265.114C149.226 285.372 124.648 322.365 122.014 364.642V472.097C122.014 484.428 111.481 494.997 98.3137 494.997C97.4359 494.997 96.5581 494.997 95.6803 494.997C103.581 496.759 112.359 497.639 120.259 497.639H121.137C143.959 497.639 165.904 491.474 184.338 480.905C221.206 459.766 246.662 419.25 246.662 374.331V248.379H247.54Z" fill="#D85C72"/>
<path d="M372.188 273.922C406.422 273.922 438.9 293.299 456.456 323.246C460.845 331.173 464.357 339.98 466.99 348.788H365.165C332.686 346.146 303.719 327.649 287.041 299.465C282.652 291.538 279.141 282.73 276.507 273.922H372.188ZM372.188 248.379H247.54C247.54 271.28 253.684 293.299 264.218 311.795C284.407 347.027 321.275 371.688 363.41 374.331H470.501C482.79 374.331 493.324 384.9 493.324 398.112C493.324 398.992 493.324 399.873 493.324 400.754C495.08 392.827 495.957 384.019 495.957 376.092V375.211C495.957 352.311 489.813 330.292 479.279 311.795C457.334 273.922 417.833 248.379 372.188 248.379Z" fill="#5B87DA"/>
<path d="M316.008 555.77V493.235C316.008 478.262 319.519 467.692 327.42 460.646C335.32 453.6 344.976 450.077 358.143 450.077C371.31 450.077 380.965 453.6 387.988 459.765C395.01 465.931 399.399 473.858 399.399 483.546C399.399 487.07 398.521 488.831 397.644 489.712C396.766 490.593 395.01 491.473 392.377 491.473C387.988 491.473 386.232 489.712 385.354 486.189C385.354 484.427 385.354 482.666 384.477 480.023C384.477 478.262 383.599 475.619 381.843 473.858C380.965 471.216 379.21 469.454 377.454 467.692C375.699 465.931 373.065 464.169 369.554 463.289C366.043 462.408 361.654 461.527 357.265 461.527C337.953 461.527 328.297 472.096 328.297 492.354V554.889C328.297 575.147 337.953 585.717 358.143 585.717C363.409 585.717 368.676 584.836 372.187 583.074C375.699 581.313 378.332 579.551 380.088 576.028C381.843 573.386 382.721 570.743 383.599 568.101C384.477 566.34 384.477 563.697 385.354 560.174C385.354 556.651 387.988 554.889 392.377 554.889C395.01 554.889 396.766 555.77 397.644 556.651C398.521 557.532 399.399 560.174 399.399 562.816C399.399 572.505 395.888 580.432 387.988 586.597C380.088 592.763 370.432 596.286 357.265 596.286C344.976 596.286 335.32 592.763 327.42 585.717C319.519 581.313 316.008 570.743 316.008 555.77Z" fill="#706F6F"/>
<path d="M419.589 592.763V449.197C419.589 447.435 420.467 446.554 421.344 445.673C422.222 444.793 423.978 443.912 425.733 443.912C427.489 443.912 429.245 444.793 430.122 445.673C431 446.554 431.878 447.435 431.878 449.197V517.016C434.511 512.612 438.023 509.089 442.412 505.566C446.801 502.924 452.067 501.162 458.212 501.162C467.868 501.162 475.768 504.685 483.668 512.612C490.691 519.659 494.202 528.466 494.202 539.036V592.763C494.202 594.525 493.324 595.406 492.446 596.286C491.568 597.167 489.813 598.048 488.057 598.048C486.302 598.048 484.546 597.167 483.668 596.286C481.913 595.406 481.913 593.644 481.913 592.763V539.036C481.913 532.87 479.279 526.705 474.89 521.42C469.623 516.136 464.357 513.493 457.334 513.493C451.19 513.493 445.045 516.136 440.656 520.539C435.389 524.943 433.634 531.109 433.634 539.036V592.763C433.634 594.525 432.756 595.406 431.878 596.286C430.122 597.167 429.245 598.048 427.489 598.048C425.733 598.048 423.978 597.167 423.1 596.286C420.467 594.525 419.589 593.644 419.589 592.763Z" fill="#706F6F"/>
<path d="M516.147 561.055V538.155C516.147 528.466 519.658 519.658 527.558 511.731C535.458 504.685 544.237 501.162 554.77 501.162C565.304 501.162 574.082 504.685 581.104 511.731C588.127 518.778 592.516 527.585 592.516 538.155C592.516 541.678 592.516 545.201 591.638 546.963C590.76 549.605 589.004 550.486 587.249 551.366C585.493 552.247 583.738 553.128 581.982 553.128C580.226 553.128 578.471 553.128 574.96 553.128H529.314V560.174C529.314 568.101 531.947 574.267 538.092 579.551C543.359 583.955 551.259 586.597 560.037 586.597C564.426 586.597 568.815 585.717 572.326 584.836C575.837 583.074 578.471 582.194 580.226 580.432C581.982 578.671 583.738 578.67 584.615 578.67C586.371 578.67 587.249 579.551 588.127 580.432C589.004 582.194 589.882 583.074 589.882 584.836C589.882 587.478 587.249 591.001 581.104 593.644C574.96 596.286 567.937 598.048 560.037 598.048C546.87 598.048 537.214 594.524 529.314 587.478C519.658 581.313 516.147 572.505 516.147 561.055ZM529.314 544.32H569.693C574.082 544.32 576.715 544.32 577.593 543.439C579.349 542.559 579.349 540.797 579.349 538.155C579.349 531.109 576.715 525.824 572.326 520.539C567.937 515.255 561.793 512.612 554.77 512.612C547.748 512.612 541.603 515.255 537.214 519.658C531.947 524.062 530.192 530.228 530.192 537.274V544.32H529.314Z" fill="#706F6F"/>
<path d="M611.827 592.763V507.328C611.827 505.566 612.705 504.685 613.583 503.804C614.461 502.924 616.216 502.043 617.972 502.043C619.727 502.043 621.483 502.924 622.361 503.804C623.239 504.685 624.116 505.566 624.116 507.328V517.016C626.75 512.612 630.261 509.089 634.65 505.566C639.039 502.924 644.306 501.162 650.45 501.162C656.595 501.162 662.74 502.924 668.006 506.447C673.273 509.97 676.784 515.255 679.418 521.42C682.929 514.374 687.318 509.97 692.585 506.447C697.852 502.924 703.996 501.162 710.141 501.162C718.919 501.162 726.819 504.685 733.842 511.731C740.864 518.778 743.497 527.585 743.497 539.036V592.763C743.497 594.525 742.62 595.405 741.742 596.286C740.864 597.167 739.108 598.048 737.353 598.048C735.597 598.048 733.842 597.167 732.964 596.286C732.086 595.405 731.208 593.644 731.208 592.763V539.036C731.208 531.109 728.575 524.943 724.186 520.539C719.797 516.135 714.53 513.493 708.385 513.493C702.241 513.493 696.974 516.135 691.707 520.539C687.318 524.943 684.685 531.109 684.685 538.155V592.763C684.685 596.286 682.051 598.048 677.662 598.048C673.273 598.048 671.518 596.286 671.518 592.763V538.155C671.518 531.109 668.884 524.943 664.495 520.539C660.106 516.135 654.839 513.493 648.695 513.493C642.55 513.493 637.283 516.135 632.017 520.539C627.628 524.943 624.994 531.109 624.994 539.036V592.763C624.994 594.525 624.116 595.405 623.239 596.286C621.483 597.167 620.605 598.048 618.85 598.048C617.094 598.048 615.338 597.167 614.461 596.286C612.705 594.524 611.827 593.644 611.827 592.763Z" fill="#706F6F"/>
<path d="M781.243 507.328V592.763C781.243 594.525 780.365 595.405 779.487 596.286C777.732 597.167 776.854 598.048 775.098 598.048C773.343 598.048 771.587 597.167 770.709 596.286C769.831 595.405 768.954 593.644 768.954 592.763V507.328C768.954 505.566 769.831 504.685 770.709 503.805C771.587 502.924 773.343 502.043 775.098 502.043C776.854 502.043 778.609 502.924 779.487 503.805C781.243 504.685 781.243 505.566 781.243 507.328Z" fill="#706F6F"/>
<path d="M783.876 465.931C783.876 468.574 782.998 470.335 781.243 472.097C779.487 473.858 777.731 474.739 775.098 474.739C772.465 474.739 770.709 473.858 768.953 472.097C767.198 470.335 766.32 468.574 766.32 465.931C766.32 463.289 767.198 461.527 768.953 459.766C770.709 458.004 772.465 457.124 775.098 457.124C777.731 457.124 779.487 458.004 781.243 459.766C782.998 461.527 783.876 463.289 783.876 465.931Z" fill="#706F6F"/>
<path d="M808.455 591.882V456.242C808.455 454.481 809.332 452.719 811.088 451.838C812.844 450.958 814.599 450.077 817.233 450.077C819.866 450.077 821.622 450.958 823.377 451.838C825.133 452.719 826.011 454.481 826.011 456.242V582.194H881.312C883.068 582.194 884.823 583.074 885.701 584.836C886.579 586.597 887.457 588.359 887.457 590.121C887.457 591.882 886.579 593.644 885.701 595.405C884.823 597.167 883.068 598.048 881.312 598.048H816.355C814.599 598.048 812.844 597.167 811.088 596.286C809.332 594.524 808.455 593.644 808.455 591.882Z" fill="#706F6F"/>
<path d="M893.601 572.505C893.601 561.936 897.99 554.89 905.89 550.486C913.791 546.082 925.202 544.32 941.002 544.32H950.658V539.916C950.658 532.87 948.903 527.586 945.391 522.301C941.88 517.016 936.614 514.374 928.713 514.374C923.447 514.374 918.18 515.255 913.791 517.016C909.402 518.778 906.768 519.659 906.768 519.659C905.013 519.659 903.257 518.778 902.379 517.016C901.502 515.255 900.624 513.493 900.624 510.851C900.624 507.328 903.257 504.685 909.402 502.924C915.546 500.281 921.691 499.401 928.713 499.401C941.88 499.401 951.536 502.924 957.681 510.851C963.825 517.897 967.337 527.586 967.337 539.036V591.001C967.337 592.763 966.459 594.525 964.703 595.405C962.948 596.286 961.192 597.167 958.559 597.167C956.803 597.167 954.17 596.286 953.292 595.405C951.536 594.525 950.658 592.763 950.658 591.001V583.074C941.88 593.644 931.347 598.048 919.935 598.048C912.035 598.048 905.013 595.405 900.624 591.001C896.235 587.478 893.601 581.313 893.601 572.505ZM911.157 570.744C911.157 576.028 912.913 579.551 915.546 582.194C918.18 584.836 921.691 585.717 926.958 585.717C932.225 585.717 938.369 583.074 943.636 578.671C948.903 574.267 951.536 569.863 951.536 564.578V554.89H944.514C941.003 554.89 937.491 554.89 934.858 554.89C932.225 554.89 928.713 555.77 926.08 555.77C923.447 556.651 920.813 557.532 919.057 558.413C917.302 559.294 915.546 561.055 914.668 562.817C911.157 565.459 911.157 568.101 911.157 570.744Z" fill="#706F6F"/>
<path d="M990.159 591.882V450.958C990.159 449.196 991.037 447.435 992.793 446.554C994.548 445.673 996.304 444.792 998.937 444.792C1001.57 444.792 1003.33 445.673 1005.08 446.554C1006.84 447.435 1007.72 449.196 1007.72 450.958V517.016C1010.35 512.612 1013.86 509.089 1018.25 505.566C1022.64 502.924 1027.9 501.162 1034.05 501.162C1043.71 501.162 1052.48 504.685 1059.51 512.612C1066.53 520.539 1070.04 529.347 1070.04 539.916V560.174C1070.04 570.743 1066.53 579.551 1059.51 587.478C1052.48 595.405 1044.58 599.809 1034.93 599.809C1028.78 599.809 1023.52 598.048 1018.25 595.405C1012.98 591.882 1009.47 588.359 1006.84 583.955V591.882C1006.84 593.644 1005.96 594.524 1004.2 596.286C1002.45 597.167 1000.69 598.048 998.937 598.048C996.304 598.048 994.548 597.167 992.793 596.286C991.037 594.524 990.159 592.763 990.159 591.882ZM1006.84 565.459C1006.84 568.982 1009.47 572.505 1013.86 576.909C1018.25 581.313 1023.52 583.955 1029.66 583.955C1035.81 583.955 1041.07 581.313 1045.46 576.909C1049.85 571.624 1052.48 566.34 1052.48 560.174V539.916C1052.48 533.751 1049.85 528.466 1045.46 524.062C1041.07 519.658 1035.81 517.016 1029.66 517.016C1023.52 517.016 1018.25 518.778 1013.86 523.182C1009.47 527.585 1006.84 532.87 1006.84 539.916V565.459Z" fill="#706F6F"/>
<path d="M323.031 677.318V650.895C323.031 644.729 324.786 640.326 328.297 637.683C331.809 635.041 336.198 633.279 341.464 633.279C346.731 633.279 351.12 635.041 353.754 637.683C357.265 640.326 358.143 643.849 358.143 647.372C358.143 649.133 358.143 650.014 357.265 650.014C357.265 650.895 356.387 650.895 355.509 650.895C353.754 650.895 352.876 650.014 352.876 649.133C352.876 648.252 352.876 647.372 352.876 646.491C352.876 645.61 351.998 644.729 351.998 643.849C351.12 642.968 351.12 642.087 350.242 641.206C349.365 640.326 348.487 639.445 346.731 639.445C344.976 638.564 343.22 638.564 341.464 638.564C333.564 638.564 329.175 642.968 329.175 651.776V678.199C329.175 687.007 333.564 691.411 341.464 691.411C344.098 691.411 345.853 691.411 347.609 690.53C349.365 689.649 350.242 688.768 351.12 687.887C351.998 687.007 351.998 685.245 352.876 684.364C352.876 683.484 353.754 682.603 353.754 680.841C353.754 679.08 354.631 679.08 356.387 679.08C357.265 679.08 358.143 679.08 358.143 679.96C358.143 680.841 359.02 681.722 359.02 682.603C359.02 687.007 357.265 689.649 354.631 693.172C351.12 695.814 347.609 697.576 341.464 697.576C336.198 697.576 331.809 695.814 329.175 693.172C324.786 687.887 323.031 683.484 323.031 677.318Z" fill="#706F6F"/>
<path d="M371.31 692.291V632.398C371.31 631.518 371.31 631.518 372.188 630.637C373.065 630.637 373.065 629.756 373.943 629.756C374.821 629.756 375.699 629.756 375.699 630.637C376.576 630.637 376.577 631.518 376.577 632.398V660.583C377.454 658.822 379.21 657.06 380.966 656.179C382.721 655.299 385.355 654.418 387.988 654.418C392.377 654.418 395.888 656.179 398.522 658.822C401.155 662.345 402.911 665.868 402.911 670.272V693.172C402.911 694.053 402.911 694.053 402.033 694.933C401.155 694.933 401.155 695.814 400.277 695.814C399.399 695.814 399.399 695.814 398.522 694.933C397.644 694.933 397.644 694.053 397.644 693.172V671.152C397.644 668.51 396.766 665.868 394.133 664.106C392.377 662.345 389.744 660.583 387.11 660.583C384.477 660.583 381.843 661.464 380.088 663.226C378.332 664.987 376.577 667.629 376.577 671.152V693.172C376.577 694.053 376.576 694.053 375.699 694.933C374.821 695.814 374.821 695.814 373.943 695.814C373.065 695.814 372.188 695.814 372.188 694.933C372.188 694.053 371.31 693.172 371.31 692.291Z" fill="#706F6F"/>
<path d="M416.955 679.08V669.391C416.955 664.987 418.711 661.464 421.344 658.822C424.855 656.179 428.366 654.418 432.755 654.418C437.144 654.418 440.656 656.179 444.167 658.822C447.678 661.464 448.556 664.987 448.556 669.391C448.556 671.153 448.556 672.033 447.678 672.914C447.678 673.795 446.8 674.676 445.922 674.676C445.045 674.676 444.167 675.556 443.289 675.556C442.411 675.556 441.534 675.556 440.656 675.556H421.344V679.08C421.344 682.603 422.222 685.245 424.855 687.007C427.489 688.768 430.122 689.649 434.511 689.649C436.267 689.649 438.022 689.649 439.778 688.768C441.533 687.887 442.411 687.887 443.289 687.007C444.167 686.126 445.045 686.126 445.045 686.126C445.923 686.126 445.923 686.126 446.8 687.007C447.678 687.887 447.678 687.887 447.678 688.768C447.678 689.649 446.8 691.41 444.167 692.291C441.533 693.172 438.9 694.053 435.389 694.053C430.122 694.053 425.733 692.291 422.222 689.649C418.711 687.887 416.955 683.483 416.955 679.08ZM422.222 672.033H438.9C440.656 672.033 441.534 672.033 442.411 671.153C443.289 671.153 443.289 670.272 443.289 668.51C443.289 665.868 442.411 663.226 440.656 661.464C438.9 659.702 436.267 657.941 432.755 657.941C430.122 657.941 427.489 658.822 425.733 660.583C423.977 662.345 422.222 664.987 422.222 667.63V672.033V672.033Z" fill="#706F6F"/>
<path d="M461.723 692.291V656.179C461.723 655.299 461.723 655.299 462.601 654.418C463.479 654.418 463.479 653.537 464.356 653.537C465.234 653.537 466.112 653.537 466.112 654.418C466.99 654.418 466.99 655.299 466.99 656.179V660.583C467.868 658.822 469.623 657.06 471.379 656.179C473.134 655.299 475.768 654.418 478.401 654.418C481.035 654.418 483.668 655.299 485.424 657.06C487.179 658.822 488.935 660.583 489.813 663.226C491.568 660.583 493.324 657.941 495.079 657.06C497.713 655.299 499.468 655.299 502.102 655.299C505.613 655.299 509.124 657.06 511.758 659.702C514.391 662.345 516.147 666.749 516.147 671.153V694.053C516.147 694.934 516.147 694.934 515.269 695.814C514.391 696.695 514.391 696.695 513.513 696.695C512.636 696.695 511.758 696.695 511.758 695.814C510.88 694.934 510.88 694.934 510.88 694.053V672.033C510.88 668.51 510.002 665.868 508.247 664.106C506.491 662.345 503.857 661.464 501.224 661.464C498.591 661.464 495.957 662.345 494.202 664.106C492.446 665.868 491.568 668.51 491.568 671.153V694.053C491.568 695.814 490.69 695.814 488.935 695.814C487.179 695.814 486.301 694.934 486.301 694.053V669.391C486.301 666.749 485.424 664.106 483.668 662.345C481.912 660.583 479.279 659.702 476.646 659.702C474.012 659.702 471.379 660.583 469.623 662.345C467.868 664.106 466.99 666.749 466.99 670.272V692.291C466.99 693.172 466.99 693.172 466.112 694.053C465.234 694.934 465.234 694.934 464.356 694.934C463.479 694.934 462.601 694.934 462.601 694.053C462.601 693.172 461.723 693.172 461.723 692.291Z" fill="#706F6F"/>
<path d="M532.825 642.087C531.947 641.206 531.947 640.326 531.947 639.445C531.947 638.564 531.947 637.683 532.825 636.802C533.703 635.922 534.58 635.922 535.458 635.922C536.336 635.922 537.214 635.922 538.092 636.802C538.969 637.683 538.969 638.564 538.969 639.445C538.969 640.326 538.969 641.206 538.092 642.087C537.214 642.087 536.336 642.968 535.458 642.968C534.58 642.968 533.703 642.087 532.825 642.087ZM532.825 692.291V656.18C532.825 655.299 532.825 655.299 533.703 654.418C534.58 654.418 534.58 653.537 535.458 653.537C536.336 653.537 537.214 653.537 537.214 654.418C538.092 654.418 538.092 655.299 538.092 656.18V692.291C538.092 693.172 538.092 693.172 537.214 694.053C536.336 694.934 536.336 694.934 535.458 694.934C534.58 694.934 533.703 694.934 533.703 694.053C532.825 693.172 532.825 693.172 532.825 692.291Z" fill="#706F6F"/>
<path d="M552.137 679.08V670.272C552.137 665.868 553.892 661.464 556.526 658.822C559.159 656.179 563.548 654.418 568.815 654.418C572.326 654.418 574.959 655.299 577.593 656.179C580.226 657.06 581.104 658.822 581.104 659.702C581.104 660.583 581.104 660.583 580.226 661.464C579.348 662.345 579.348 662.345 578.471 662.345C578.471 662.345 577.593 662.345 576.715 661.464C575.837 660.583 574.959 660.583 574.082 659.702C573.204 658.822 571.448 658.822 569.693 658.822C566.181 658.822 563.548 659.702 561.792 661.464C560.037 663.226 559.159 665.868 559.159 669.391V678.199C559.159 681.722 560.037 684.364 561.792 686.126C563.548 687.887 566.181 688.768 569.693 688.768C571.448 688.768 573.204 688.768 574.959 687.887C576.715 687.007 577.593 687.007 577.593 686.126C578.471 685.245 578.471 685.245 579.348 685.245C580.226 685.245 581.104 685.245 581.104 686.126C581.982 687.007 581.982 687.007 581.982 687.887C581.982 688.768 581.104 690.53 578.471 691.41C575.837 692.291 573.204 693.172 569.693 693.172C564.426 693.172 560.037 691.41 557.403 688.768C553.892 687.887 552.137 683.483 552.137 679.08Z" fill="#706F6F"/>
<path d="M590.76 684.364C590.76 679.96 592.515 676.437 596.027 675.556C599.538 673.795 603.927 672.914 610.949 672.914H614.46V671.153C614.46 668.51 613.582 665.868 611.827 663.226C610.071 660.583 607.438 659.702 603.927 659.702C601.293 659.702 599.538 659.702 597.782 660.583C596.027 661.464 595.149 661.464 595.149 661.464C594.271 661.464 594.271 661.464 593.393 660.583C593.393 659.702 592.515 659.703 592.515 658.822C592.515 657.941 593.393 657.06 596.027 656.179C598.66 655.299 601.293 654.418 603.927 654.418C609.194 654.418 612.705 656.179 615.338 658.822C617.971 661.464 618.849 665.868 618.849 670.272V692.291C618.849 693.172 618.849 693.172 617.971 694.053C617.094 694.053 617.094 694.934 616.216 694.934C615.338 694.934 614.46 694.934 614.46 694.053C614.46 693.172 614.46 693.172 614.46 692.291V688.768C610.949 693.172 606.56 694.934 602.171 694.934C598.66 694.934 596.027 694.053 594.271 692.291C591.638 690.53 590.76 687.887 590.76 684.364ZM596.027 683.483C596.027 686.126 596.904 687.887 597.782 688.768C599.538 689.649 601.293 690.53 603.049 690.53C605.682 690.53 608.316 689.649 610.949 687.887C613.582 686.126 614.46 684.364 614.46 681.722V676.437H610.949C608.316 676.437 606.56 676.437 605.682 676.437C603.927 676.437 602.171 677.318 601.293 677.318C600.416 677.318 597.782 678.199 596.904 679.96C596.904 680.841 596.027 681.722 596.027 683.483Z" fill="#706F6F"/>
<path d="M636.405 692.291V632.398C636.405 631.518 636.405 631.518 637.283 630.637C638.161 630.637 638.161 629.756 639.039 629.756C639.917 629.756 640.794 629.756 640.794 630.637C641.672 630.637 641.672 631.518 641.672 632.398V692.291C641.672 693.172 641.672 693.172 640.794 694.053C639.917 694.934 639.917 694.934 639.039 694.934C638.161 694.934 637.283 694.934 637.283 694.053C636.405 693.172 636.405 693.172 636.405 692.291Z" fill="#706F6F"/>
<path d="M681.173 692.291V635.041C681.173 633.279 682.051 633.279 683.807 633.279C685.562 633.279 686.44 634.16 686.44 635.041V689.649H710.141C711.019 689.649 711.896 690.53 711.896 692.291C711.896 694.053 711.019 694.934 710.141 694.934H682.929C682.051 694.934 682.051 694.934 681.173 694.053C681.173 693.172 681.173 693.172 681.173 692.291Z" fill="#706F6F"/>
<path d="M720.674 684.364C720.674 679.96 722.43 676.437 725.941 675.556C729.452 673.795 733.841 672.914 740.864 672.914H745.253V671.153C745.253 668.51 744.375 665.868 742.619 663.226C740.864 660.583 738.23 659.702 734.719 659.702C732.086 659.702 730.33 659.702 728.575 660.583C726.819 661.464 725.941 661.464 725.941 661.464C725.063 661.464 725.063 661.464 724.186 660.583C724.186 659.702 723.308 659.703 723.308 658.822C723.308 657.941 724.186 657.06 726.819 656.179C729.452 655.299 732.086 654.418 734.719 654.418C739.986 654.418 743.497 656.179 746.13 658.822C748.764 661.464 749.642 665.868 749.642 670.272V692.291C749.642 693.172 749.642 693.172 748.764 694.053C747.886 694.053 747.886 694.934 747.008 694.934C746.13 694.934 745.253 694.934 745.253 694.053C744.375 694.053 744.375 693.172 744.375 692.291V688.768C740.864 693.172 736.475 694.934 732.086 694.934C728.575 694.934 725.941 694.053 724.186 692.291C722.43 690.53 720.674 687.887 720.674 684.364ZM726.819 683.483C726.819 686.126 727.697 687.887 728.575 688.768C730.33 689.649 732.086 690.53 733.841 690.53C736.475 690.53 739.108 689.649 741.741 687.887C744.375 686.126 745.253 684.364 745.253 681.722V676.437H741.741C739.108 676.437 737.353 676.437 736.475 676.437C734.719 676.437 732.964 677.318 732.086 677.318C729.452 678.199 728.575 678.199 727.697 679.96C726.819 680.841 726.819 681.722 726.819 683.483Z" fill="#706F6F"/>
<path d="M765.442 692.291V632.398C765.442 631.518 765.442 631.518 766.32 630.637C767.198 630.637 767.198 629.756 768.076 629.756C768.953 629.756 769.831 629.756 769.831 630.637C770.709 630.637 770.709 631.518 770.709 632.398V660.583C771.587 658.822 773.342 657.06 775.098 656.179C776.854 655.299 779.487 654.418 782.12 654.418C786.509 654.418 790.021 656.179 792.654 658.822C795.287 662.345 797.043 665.868 797.043 670.272V679.079C797.043 683.483 795.287 687.007 792.654 690.53C790.021 694.053 786.509 695.814 782.12 695.814C779.487 695.814 776.854 694.934 775.098 694.053C773.342 693.172 771.587 691.41 770.709 689.649V693.172C770.709 694.053 770.709 694.053 769.831 694.933C768.953 695.814 768.953 695.814 768.076 695.814C767.198 695.814 766.32 695.814 766.32 694.933C766.32 694.053 765.442 693.172 765.442 692.291ZM771.587 681.722C771.587 683.483 772.465 685.245 775.098 687.006C776.854 688.768 779.487 689.649 782.12 689.649C784.754 689.649 787.387 688.768 789.143 686.126C790.898 683.483 792.654 681.722 792.654 678.199V669.391C792.654 666.749 791.776 664.106 789.143 662.345C787.387 660.583 784.754 658.822 782.12 658.822C779.487 658.822 776.854 659.702 775.098 661.464C773.342 663.225 771.587 665.868 771.587 669.391V681.722Z" fill="#706F6F"/>
<path d="M810.21 679.08V670.272C810.21 665.868 811.966 662.345 814.599 658.822C818.11 655.299 821.621 654.418 826.01 654.418C830.399 654.418 833.911 656.179 837.422 658.822C840.933 662.345 841.811 665.868 841.811 670.272V679.08C841.811 683.483 840.055 687.007 836.544 690.53C833.033 694.053 829.522 695.814 825.133 695.814C820.744 695.814 817.232 694.053 813.721 690.53C811.966 687.007 810.21 683.483 810.21 679.08ZM815.477 679.08C815.477 681.722 816.355 684.364 818.988 687.007C820.744 689.649 823.377 690.53 826.01 690.53C828.644 690.53 831.277 689.649 833.911 687.007C835.666 684.364 837.422 682.603 837.422 679.08V670.272C837.422 667.629 836.544 664.987 833.911 663.226C832.155 661.464 829.522 659.703 826.888 659.703C824.255 659.703 821.621 660.583 819.866 663.226C818.11 664.987 816.355 667.629 816.355 670.272V679.08H815.477Z" fill="#706F6F"/>
<path d="M855.855 692.291V656.179C855.855 655.299 855.855 655.299 856.733 654.418C857.611 654.418 857.611 653.537 858.489 653.537C859.367 653.537 860.244 653.537 860.244 654.418C861.122 654.418 861.122 655.299 861.122 656.179V660.583C862 658.822 863.756 657.06 865.511 656.179C867.267 655.299 869.9 654.418 872.534 654.418H875.167C876.045 654.418 876.045 654.418 876.923 655.299C877.8 656.179 877.8 656.179 877.8 657.06C877.8 657.941 877.8 657.941 876.923 658.822C876.045 659.702 876.045 659.702 875.167 659.702H872.534C869.9 659.702 867.267 660.583 864.633 663.226C862 665.868 861.122 668.51 861.122 672.033V693.172C861.122 694.053 861.122 694.053 860.244 694.934C859.367 695.814 859.367 695.814 858.489 695.814C857.611 695.814 856.733 695.814 856.733 694.934C856.733 693.172 855.855 693.172 855.855 692.291Z" fill="#706F6F"/>
<path d="M886.579 684.364C886.579 679.96 888.334 676.437 891.845 675.556C895.357 673.795 899.746 672.914 906.768 672.914H911.157V671.153C911.157 668.51 910.279 665.868 908.524 663.226C906.768 660.583 904.135 659.702 900.623 659.702C897.99 659.702 896.234 659.702 894.479 660.583C892.723 661.464 891.845 661.464 891.845 661.464C890.968 661.464 890.968 661.464 890.09 660.583C890.09 659.702 889.212 659.703 889.212 658.822C889.212 657.941 890.09 657.06 892.723 656.179C895.357 655.299 897.99 654.418 900.623 654.418C905.89 654.418 909.401 656.179 912.035 658.822C914.668 661.464 915.546 665.868 915.546 670.272V692.291C915.546 693.172 915.546 693.172 914.668 694.053C913.79 694.053 913.79 694.934 912.913 694.934C912.035 694.934 911.157 694.934 911.157 694.053C910.279 694.053 910.279 693.172 910.279 692.291V688.768C906.768 693.172 902.379 694.934 897.99 694.934C894.479 694.934 891.845 694.053 890.09 692.291C887.456 690.53 886.579 687.887 886.579 684.364ZM891.845 683.483C891.845 686.126 892.723 687.887 893.601 688.768C895.357 689.649 897.112 690.53 898.868 690.53C901.501 690.53 904.135 689.649 906.768 687.887C909.401 686.126 910.279 684.364 910.279 681.722V676.437H906.768C904.135 676.437 902.379 676.437 901.501 676.437C899.746 676.437 897.99 677.318 897.112 677.318C896.234 677.318 894.479 678.199 893.601 679.08C891.845 680.841 891.845 681.722 891.845 683.483Z" fill="#706F6F"/>
<path d="M930.469 681.722V637.683C930.469 636.802 930.469 636.802 931.346 635.921C932.224 635.921 932.224 635.041 933.102 635.041C933.98 635.041 934.858 635.041 934.858 635.921C935.735 635.921 935.735 636.802 935.735 637.683V654.418H946.269C947.147 654.418 947.147 654.418 948.025 655.299C948.025 656.179 948.902 656.179 948.902 657.06C948.902 657.941 948.902 657.941 948.025 658.822C948.025 659.702 947.147 659.702 946.269 659.702H935.735V682.603C935.735 685.245 936.613 687.007 937.491 688.768C938.369 689.649 941.002 690.53 943.636 690.53H946.269C947.147 690.53 948.025 690.53 948.025 691.41C948.902 692.291 948.902 692.291 948.902 693.172C948.902 694.053 948.902 694.053 948.025 694.934C947.147 695.814 947.147 695.814 946.269 695.814H943.636C934.858 694.934 930.469 690.53 930.469 681.722Z" fill="#706F6F"/>
<path d="M958.558 679.08V670.272C958.558 665.868 960.314 662.345 962.947 658.822C966.459 655.299 969.97 654.418 974.359 654.418C978.748 654.418 982.259 656.179 985.77 658.822C989.281 662.345 990.159 665.868 990.159 670.272V679.08C990.159 683.483 988.404 687.007 984.892 690.53C981.381 694.053 977.87 695.814 973.481 695.814C969.092 695.814 965.581 694.053 962.07 690.53C960.314 687.007 958.558 683.483 958.558 679.08ZM963.825 679.08C963.825 681.722 964.703 684.364 967.336 687.007C969.092 689.649 971.725 690.53 974.359 690.53C976.992 690.53 979.626 689.649 982.259 687.007C984.015 684.364 985.77 682.603 985.77 679.08V670.272C985.77 667.629 984.892 664.987 982.259 663.226C980.503 661.464 977.87 659.703 975.237 659.703C972.603 659.703 969.97 660.583 968.214 663.226C966.459 664.987 964.703 667.629 964.703 670.272V679.08H963.825Z" fill="#706F6F"/>
<path d="M1005.08 692.291V656.179C1005.08 655.299 1005.08 655.299 1005.96 654.418C1006.84 654.418 1006.84 653.537 1007.72 653.537C1008.59 653.537 1009.47 653.537 1009.47 654.418C1010.35 654.418 1010.35 655.299 1010.35 656.179V660.583C1011.23 658.822 1012.98 657.06 1014.74 656.179C1016.49 655.299 1019.13 654.418 1021.76 654.418H1024.39C1025.27 654.418 1025.27 654.418 1026.15 655.299C1027.03 656.179 1027.03 656.179 1027.03 657.06C1027.03 657.941 1027.03 657.941 1026.15 658.822C1025.27 659.702 1025.27 659.702 1024.39 659.702H1021.76C1019.13 659.702 1016.49 660.583 1013.86 663.226C1011.23 665.868 1010.35 668.51 1010.35 672.033V693.172C1010.35 694.053 1010.35 694.053 1009.47 694.934C1008.59 695.814 1008.59 695.814 1007.72 695.814C1006.84 695.814 1005.96 695.814 1005.96 694.934C1005.08 693.172 1005.08 693.172 1005.08 692.291Z" fill="#706F6F"/>
<path d="M1033.17 657.06C1033.17 656.179 1033.17 656.179 1034.05 655.299C1034.93 654.418 1035.8 654.418 1036.68 654.418C1037.56 654.418 1038.44 654.418 1038.44 655.299L1049.85 686.126L1060.38 655.299C1060.38 654.418 1061.26 654.418 1062.14 654.418C1063.02 654.418 1063.89 654.418 1064.77 655.299C1065.65 656.179 1065.65 656.179 1065.65 657.06V657.941L1052.48 693.172L1050.73 697.576C1050.73 698.457 1049.85 699.337 1048.97 701.98C1048.09 703.741 1047.22 705.503 1047.22 706.384L1045.46 709.907C1044.58 711.668 1043.7 712.549 1042.83 712.549C1041.95 713.43 1041.07 713.43 1039.32 714.311C1038.44 715.191 1036.68 715.191 1035.8 715.191C1034.05 715.191 1033.17 714.311 1033.17 712.549C1033.17 710.788 1034.05 709.907 1034.93 709.907C1037.56 709.907 1040.19 708.145 1041.95 705.503C1044.58 701.98 1045.46 698.457 1047.22 694.053L1033.17 657.06Z" fill="#706F6F"/>
<path d="M348.487 29.0656V131.236C345.854 163.825 327.42 192.89 299.33 209.625C291.43 214.029 282.652 217.552 273.874 220.194V124.19C273.874 89.8393 293.186 57.2505 323.031 39.635C330.931 34.3503 339.709 31.708 348.487 29.0656ZM374.821 0C351.12 0 329.175 6.16544 310.742 16.7348C273.874 37.8734 248.418 78.3892 248.418 123.309V248.379C271.241 248.379 293.186 242.214 311.619 231.644C346.731 211.387 371.31 174.394 373.943 132.117V25.5425C373.943 13.2117 384.477 2.64233 397.644 2.64233C398.522 2.64233 399.399 2.64233 400.277 2.64233C391.499 0.880777 382.721 0 374.821 0Z" fill="#6ECB98"/>
<path d="M130.792 147.971C163.271 150.613 192.238 169.109 208.917 197.294C213.306 205.221 216.817 214.029 219.45 222.837H123.77C89.5357 222.837 57.057 203.46 39.501 173.513C35.112 165.586 31.6008 156.778 28.9674 147.971H130.792V147.971ZM2.6334 96.8856C0.877801 104.813 0 113.62 0 121.547V122.428C0 145.328 6.1446 167.348 16.6782 185.844C37.7454 222.837 78.1243 248.379 122.892 248.379H247.54C247.54 225.479 241.395 203.46 230.862 184.963C210.672 149.732 173.805 125.07 131.67 122.428H25.4562C13.167 122.428 2.6334 111.859 2.6334 98.6471C2.6334 98.6471 2.6334 97.7663 2.6334 96.8856Z" fill="#FFDA00"/>
<path d="M222.084 277.445V373.45C222.084 407.8 202.772 440.389 172.927 458.004C165.027 462.408 156.249 465.931 147.471 468.574V366.404C150.104 333.815 168.538 304.749 196.627 288.014C205.405 283.611 213.306 280.087 222.084 277.445ZM247.54 248.379C224.717 248.379 202.772 254.545 184.338 265.114C149.226 285.372 124.648 322.365 122.014 364.642V472.097C122.014 484.428 111.481 494.997 98.3137 494.997C97.4359 494.997 96.5581 494.997 95.6803 494.997C103.581 496.759 112.359 497.639 120.259 497.639H121.137C143.959 497.639 165.904 491.474 184.338 480.905C221.206 459.766 246.662 419.25 246.662 374.331V248.379H247.54Z" fill="#D85C72"/>
<path d="M372.188 273.922C406.422 273.922 438.9 293.299 456.456 323.246C460.845 331.173 464.357 339.98 466.99 348.788H365.165C332.686 346.146 303.719 327.649 287.041 299.465C282.652 291.538 279.141 282.73 276.507 273.922H372.188ZM372.188 248.379H247.54C247.54 271.28 253.684 293.299 264.218 311.795C284.407 347.027 321.275 371.688 363.41 374.331H470.501C482.79 374.331 493.324 384.9 493.324 398.112C493.324 398.992 493.324 399.873 493.324 400.754C495.08 392.827 495.957 384.019 495.957 376.092V375.211C495.957 352.311 489.813 330.292 479.279 311.795C457.334 273.922 417.833 248.379 372.188 248.379Z" fill="#5B87DA"/>
</svg>
