<svg width="32" height="24" viewBox="0 0 32 24" fill="none" xmlns="http://www.w3.org/2000/svg">
<path d="M28.0729 0H3.92019C1.74231 0 0 1.71735 0 3.86404V20.136C0 22.2612 1.74231 24 3.92019 24H28.0729C30.2291 24 31.9931 22.2826 31.9931 20.136V3.86404C31.9714 1.73882 30.2291 0 28.0729 0ZM30.1855 20.136C30.1855 21.2952 29.2272 22.2397 28.0512 22.2397H3.92019C2.74414 22.2397 1.78587 21.2952 1.78587 20.136V3.86404C1.78587 2.70483 2.74414 1.76029 3.92019 1.76029H28.0729C29.249 1.76029 30.2073 2.70483 30.2073 3.86404L30.1855 20.136Z" fill="#5B87DA"/>
<path d="M20.1672 11.7854L27.9858 4.873C28.3561 4.55099 28.3779 3.99285 28.0512 3.62791C27.7245 3.26297 27.1582 3.2415 26.788 3.56351L16.0075 13.1163L13.8949 11.2702L13.8731 11.2487C13.8296 11.2058 13.786 11.1628 13.7207 11.1199L5.18336 3.56351C4.81312 3.2415 4.24687 3.26297 3.92019 3.62791C3.59351 3.99285 3.61529 4.55099 3.98553 4.873L11.8913 11.8498L4.02908 19.1271C3.68062 19.4491 3.65884 20.0073 3.98553 20.3722C4.15976 20.5654 4.39932 20.6513 4.63889 20.6513C4.85668 20.6513 5.07447 20.5654 5.2487 20.4151L13.2415 13.0305L15.4194 14.941C15.5937 15.0913 15.8115 15.1557 16.0075 15.1557C16.2035 15.1557 16.443 15.0698 16.5955 14.9196L18.8169 12.9446L26.788 20.4151C26.9622 20.5869 27.18 20.6513 27.3978 20.6513C27.6374 20.6513 27.8769 20.5654 28.0512 20.3722C28.3779 20.0287 28.3779 19.4491 28.0076 19.1271L20.1672 11.7854Z" fill="#5B87DA"/>
</svg>
