<svg width="139" height="93" viewBox="0 0 139 93" fill="none" xmlns="http://www.w3.org/2000/svg">
<path d="M45.2489 3.75275V17.0849C44.9532 21.2327 42.5872 25.0842 38.8411 27.2568C37.8553 27.8493 36.6723 28.3431 35.5879 28.6394V16.0973C35.5879 11.6533 38.0525 7.40674 41.9957 5.13534C42.9816 4.5428 44.1645 4.04902 45.2489 3.75275ZM48.6993 0H48.6007C45.6433 0 42.7844 0.790052 40.3199 2.2714C35.4894 5.03658 32.2362 10.2707 32.2362 16.1961V32.3921C35.2922 32.3921 38.0525 31.6021 40.517 30.2195C45.1504 27.5531 48.305 22.8128 48.6007 17.2824V3.25897C48.6007 1.5801 49.9809 0.29627 51.6567 0.29627C51.7553 0.29627 51.8539 0.29627 51.9525 0.29627C50.8681 0.0987565 49.7837 0 48.6993 0Z" fill="#F2F2F2"/>
<path d="M17.0546 19.2575C21.195 19.5538 25.0397 21.9239 27.2085 25.6767C27.8 26.6642 28.2929 27.8493 28.5887 28.9356H16.0688C11.6326 28.9356 7.39362 26.4667 5.12624 22.5165C4.53475 21.5289 4.04184 20.4426 3.7461 19.2575H17.0546ZM0.295745 12.5421C0.0985816 13.6284 0 14.7147 0 15.801V15.8998C0 18.8625 0.788653 21.7264 2.26738 24.1953C5.02766 29.0344 10.2525 32.2934 16.1674 32.2934H32.3348C32.3348 29.2319 31.5461 26.4667 30.166 23.9978C27.5043 19.3563 22.7723 16.196 17.2518 15.8998H3.25319C1.57731 15.8998 0.295745 14.5172 0.295745 12.8383C0.295745 12.7396 0.295745 12.6408 0.295745 12.5421Z" fill="#F2F2F2"/>
<path d="M28.8844 36.0461V48.4895C28.8844 52.9335 26.4199 57.18 22.4766 59.4514C21.4908 60.044 20.4064 60.5378 19.2234 60.834V47.5019C19.5192 43.3541 21.8851 39.5026 25.6312 37.33C26.617 36.8362 27.8 36.3424 28.8844 36.0461ZM32.2362 32.2934C29.1802 32.2934 26.4199 33.0834 23.9553 34.466C19.322 37.1325 16.1674 41.8728 15.8716 47.4031V61.3278C15.8716 63.0067 14.4915 64.2905 12.8156 64.2905C12.717 64.2905 12.6184 64.2905 12.5199 64.2905C13.6043 64.488 14.6887 64.5868 15.7731 64.5868H15.8716C18.8291 64.5868 21.688 63.7967 24.1525 62.3154C28.983 59.5502 32.2362 54.3161 32.2362 48.3907V32.2934Z" fill="#F2F2F2"/>
<path d="M48.4036 35.6511C52.8397 35.6511 57.0787 38.12 59.3461 42.0703C59.9376 43.0578 60.4305 44.1442 60.7262 45.3292H47.4177C43.2773 45.033 39.4326 42.6628 37.2638 38.9101C36.6723 37.9225 36.1794 36.7374 35.8837 35.6511H48.4036ZM48.4036 32.2934H32.2362C32.2362 35.3548 33.0248 38.12 34.405 40.5889C37.0667 45.2305 41.7986 48.3907 47.3192 48.687H61.2192C62.895 48.687 64.1766 50.0696 64.1766 51.7484C64.1766 51.8472 64.1766 51.9459 64.1766 52.0447C64.3738 50.9584 64.4724 49.872 64.4724 48.7857V48.687C64.4724 45.7243 63.6837 42.8603 62.205 40.3914C59.4447 35.5524 54.3184 32.2934 48.4036 32.2934Z" fill="#F2F2F2"/>
<path d="M41.1085 72.191V64.093C41.1085 62.2166 41.6014 60.834 42.6858 59.8464C43.6716 58.9576 45.0518 58.4638 46.6291 58.4638C48.305 58.4638 49.5865 58.8589 50.5723 59.7477C51.5582 60.6365 52.0511 61.6241 52.0511 62.8091C52.0511 63.2042 51.9525 63.5004 51.8539 63.5992C51.7553 63.698 51.4596 63.7967 51.1638 63.7967C50.6709 63.7967 50.3752 63.5992 50.2766 63.1054C50.2766 62.8091 50.178 62.6116 50.178 62.3154C50.0794 62.1178 49.9809 61.8216 49.8823 61.5253C49.6851 61.229 49.488 60.9328 49.2908 60.7352C48.995 60.5377 48.6993 60.3402 48.2064 60.1427C47.7135 60.0439 47.2206 59.9452 46.6291 59.9452C44.1645 59.9452 42.883 61.229 42.883 63.8955V71.9935C42.883 74.66 44.1645 76.0426 46.7277 76.0426C47.4177 76.0426 48.1078 75.9438 48.6007 75.7463C49.0936 75.5488 49.488 75.2525 49.6851 74.8575C49.8823 74.4625 50.0794 74.1662 50.178 73.8699C50.2766 73.5736 50.2766 73.2774 50.3752 72.7836C50.4738 72.2898 50.6709 72.0923 51.2624 72.0923C51.5582 72.0923 51.7553 72.191 51.9525 72.2898C52.0511 72.4873 52.1497 72.6848 52.1497 73.1786C52.1497 74.4624 51.6567 75.45 50.6709 76.3388C49.6851 77.2276 48.4036 77.6227 46.7277 77.6227C45.1504 77.6227 43.8688 77.1289 42.7844 76.2401C41.6014 75.45 41.1085 74.0674 41.1085 72.191Z" fill="#F2F2F2"/>
<path d="M54.6142 76.9313V58.2663C54.6142 58.0688 54.7128 57.97 54.8114 57.7725C55.0085 57.6738 55.2057 57.575 55.4028 57.575C55.6 57.575 55.8958 57.6738 55.9943 57.7725C56.1915 57.8713 56.2901 58.0688 56.2901 58.2663V67.0556C56.5858 66.4631 57.0787 65.9693 57.6702 65.5743C58.2617 65.1793 58.9518 64.9818 59.7404 64.9818C61.022 64.9818 62.1064 65.4755 62.9936 66.4631C63.8809 67.4507 64.3738 68.537 64.3738 69.9196V76.9313C64.3738 77.1288 64.2752 77.3263 64.078 77.4251C63.8809 77.5238 63.6837 77.6226 63.4865 77.6226C63.2894 77.6226 63.0922 77.5238 62.8951 77.4251C62.6979 77.3263 62.5993 77.1288 62.5993 76.9313V70.0183C62.5993 69.1295 62.3036 68.4382 61.6135 67.7469C60.9234 67.0556 60.2333 66.7594 59.3461 66.7594C58.5575 66.7594 57.7688 67.0556 57.1773 67.6482C56.5858 68.2407 56.1915 69.0308 56.1915 70.0183V76.9313C56.1915 77.1288 56.0929 77.2276 55.8958 77.4251C55.6986 77.5238 55.5014 77.6226 55.3043 77.6226C55.1071 77.6226 54.9099 77.5238 54.7128 77.4251C54.7128 77.2276 54.6142 77.1288 54.6142 76.9313Z" fill="#F2F2F2"/>
<path d="M67.134 72.7835V69.8208C67.134 68.537 67.6269 67.3519 68.6128 66.4631C69.5986 65.4755 70.7815 65.0805 72.1617 65.0805C73.4432 65.0805 74.6262 65.5743 75.612 66.4631C76.5979 67.3519 77.0908 68.537 77.0908 69.9196C77.0908 70.4133 76.9922 70.8084 76.8936 71.1046C76.795 71.4009 76.5979 71.5984 76.3021 71.6972C76.0064 71.7959 75.8092 71.8947 75.612 71.8947C75.4149 71.8947 75.1191 71.9934 74.7248 71.9934H68.8099V72.981C68.8099 73.9686 69.2042 74.8574 69.8943 75.4499C70.683 76.0424 71.5702 76.3387 72.7532 76.3387C73.3447 76.3387 73.8376 76.24 74.3305 76.0424C74.8234 75.8449 75.1191 75.6474 75.3163 75.5487C75.5135 75.3511 75.7106 75.2524 75.9078 75.2524C76.105 75.2524 76.3021 75.3511 76.4007 75.5487C76.4993 75.7462 76.5979 75.9437 76.5979 76.0424C76.5979 76.4375 76.2035 76.8325 75.5135 77.2275C74.7248 77.6225 73.8376 77.8201 72.7532 77.8201C71.0773 77.8201 69.7957 77.3263 68.7113 76.4375C67.6269 75.4499 67.134 74.2648 67.134 72.7835ZM68.8099 70.6108H74.0347C74.5276 70.6108 74.922 70.5121 75.1191 70.4133C75.3163 70.3146 75.4149 70.0183 75.4149 69.722C75.4149 68.8332 75.1191 68.0432 74.5276 67.4506C73.9362 66.7593 73.1475 66.4631 72.1617 66.4631C71.2745 66.4631 70.4858 66.7593 69.8943 67.3519C69.3028 67.9444 68.9085 68.7345 68.9085 69.6233V70.6108H68.8099Z" fill="#F2F2F2"/>
<path d="M79.5553 76.9313V65.8706C79.5553 65.6731 79.6539 65.5743 79.7525 65.3768C79.9497 65.2781 80.1468 65.1793 80.344 65.1793C80.5411 65.1793 80.7383 65.2781 80.9355 65.3768C81.1326 65.4756 81.1326 65.6731 81.1326 65.8706V67.0557C81.4284 66.4632 81.9213 65.9694 82.5128 65.5743C83.1043 65.1793 83.7943 64.9818 84.583 64.9818C85.3716 64.9818 86.1603 65.1793 86.8504 65.6731C87.5404 66.1669 88.0333 66.7594 88.3291 67.5495C88.7234 66.6607 89.3149 66.0681 90.005 65.5743C90.695 65.0806 91.4837 64.883 92.2723 64.883C93.4553 64.883 94.4411 65.3768 95.3284 66.2656C96.2156 67.1544 96.6099 68.3395 96.6099 69.8209V76.8326C96.6099 77.0301 96.5113 77.1289 96.3142 77.3264C96.117 77.4251 95.9199 77.5239 95.7227 77.5239C95.5255 77.5239 95.3284 77.4251 95.1312 77.3264C94.934 77.2276 94.8355 77.0301 94.8355 76.8326V69.9196C94.8355 68.9321 94.5397 68.0433 93.9482 67.4507C93.3567 66.8582 92.6667 66.5619 91.878 66.5619C91.0894 66.5619 90.3993 66.8582 89.7092 67.4507C89.1177 68.0433 88.822 68.8333 88.822 69.7221V76.8326C88.822 77.2276 88.5262 77.5239 87.9348 77.5239C87.3433 77.5239 87.1461 77.3264 87.1461 76.8326V69.8209C87.1461 68.9321 86.8504 68.142 86.2589 67.5495C85.6674 66.9569 84.9773 66.6607 84.1887 66.6607C83.4 66.6607 82.6114 66.9569 82.0199 67.5495C81.4284 68.142 81.1326 68.9321 81.1326 69.9196V76.8326C81.1326 77.0301 81.0341 77.1289 80.8369 77.3264C80.6397 77.4251 80.4426 77.5239 80.2454 77.5239C80.0482 77.5239 79.8511 77.4251 79.6539 77.3264C79.6539 77.2276 79.5553 77.1289 79.5553 76.9313Z" fill="#F2F2F2"/>
<path d="M101.638 65.8706V76.9314C101.638 77.1289 101.539 77.2276 101.342 77.4252C101.145 77.5239 100.947 77.6227 100.75 77.6227C100.553 77.6227 100.356 77.5239 100.159 77.4252C99.9617 77.3264 99.8631 77.1289 99.8631 76.9314V65.8706C99.8631 65.6731 99.9617 65.5743 100.06 65.3768C100.257 65.2781 100.455 65.1793 100.652 65.1793C100.849 65.1793 101.145 65.2781 101.243 65.3768C101.539 65.4756 101.638 65.6731 101.638 65.8706Z" fill="#F2F2F2"/>
<path d="M101.933 60.439C101.933 60.7353 101.835 61.0315 101.638 61.229C101.44 61.4266 101.145 61.5253 100.849 61.5253C100.553 61.5253 100.257 61.4266 99.9617 61.229C99.7645 61.0315 99.666 60.7353 99.666 60.439C99.666 60.1427 99.7645 59.8464 99.9617 59.6489C100.159 59.4514 100.455 59.3527 100.849 59.3527C101.145 59.3527 101.44 59.4514 101.638 59.6489C101.736 59.8464 101.933 60.1427 101.933 60.439Z" fill="#F2F2F2"/>
<path d="M105.088 76.8326V59.2539C105.088 59.0564 105.187 58.8589 105.384 58.6614C105.581 58.5626 105.877 58.4638 106.172 58.4638C106.468 58.4638 106.764 58.5626 106.961 58.6614C107.158 58.7601 107.257 58.9576 107.257 59.2539V75.6475H114.355C114.552 75.6475 114.749 75.7463 114.848 75.9438C114.946 76.1413 115.045 76.3388 115.045 76.6351C115.045 76.9314 114.946 77.1289 114.848 77.3264C114.749 77.5239 114.552 77.6227 114.355 77.6227H105.975C105.679 77.6227 105.482 77.5239 105.285 77.4252C105.187 77.2276 105.088 77.0301 105.088 76.8326Z" fill="#F2F2F2"/>
<path d="M116.228 74.3636C116.228 72.981 116.721 71.9935 117.805 71.4997C118.889 71.0059 120.368 70.7096 122.34 70.7096H123.621V70.1171C123.621 69.2283 123.424 68.4382 122.931 67.8457C122.438 67.1544 121.748 66.8581 120.762 66.8581C120.072 66.8581 119.382 66.9569 118.791 67.2532C118.199 67.5494 117.904 67.6482 117.904 67.6482C117.706 67.6482 117.509 67.5494 117.312 67.2532C117.115 67.0556 117.115 66.7594 117.115 66.4631C117.115 66.0681 117.509 65.6731 118.298 65.3768C119.087 65.0805 119.974 64.883 120.861 64.883C122.537 64.883 123.818 65.3768 124.607 66.3644C125.396 67.3519 125.79 68.537 125.79 70.0183V76.7337C125.79 76.9313 125.692 77.1288 125.494 77.3263C125.297 77.5238 125.001 77.5238 124.706 77.5238C124.41 77.5238 124.213 77.425 124.016 77.3263C123.818 77.2275 123.72 77.03 123.72 76.7337V75.7462C122.537 77.03 121.255 77.7213 119.777 77.7213C118.692 77.7213 117.904 77.425 117.214 76.8325C116.523 76.3387 116.228 75.4499 116.228 74.3636ZM118.396 74.0673C118.396 74.7586 118.594 75.2524 118.988 75.5487C119.382 75.8449 119.875 76.0425 120.467 76.0425C121.157 76.0425 121.945 75.7462 122.635 75.1537C123.326 74.5611 123.621 73.9686 123.621 73.376V71.9935H122.734C122.241 71.9935 121.748 71.9935 121.453 71.9935C121.058 71.9935 120.664 72.0922 120.27 72.191C119.875 72.2897 119.579 72.3885 119.284 72.4872C118.988 72.6848 118.791 72.8823 118.692 73.0798C118.495 73.4748 118.396 73.7711 118.396 74.0673Z" fill="#F2F2F2"/>
<path d="M128.748 76.8327V58.4639C128.748 58.2664 128.846 58.0689 129.043 57.8714C129.24 57.7726 129.536 57.6739 129.832 57.6739C130.128 57.6739 130.423 57.7726 130.621 57.8714C130.818 57.9702 130.916 58.1677 130.916 58.4639V67.0558C131.212 66.4632 131.705 65.9694 132.296 65.5744C132.888 65.1794 133.578 64.9819 134.367 64.9819C135.648 64.9819 136.733 65.4757 137.62 66.4632C138.507 67.4508 139 68.6359 139 70.0185V72.6849C139 73.9687 138.507 75.1538 137.62 76.2401C136.733 77.2277 135.648 77.8202 134.367 77.8202C133.578 77.8202 132.888 77.6227 132.198 77.2277C131.508 76.8327 131.015 76.3389 130.719 75.7463V76.8327C130.719 77.0302 130.621 77.2277 130.423 77.4252C130.226 77.6227 130.029 77.6227 129.733 77.6227C129.438 77.6227 129.142 77.524 128.945 77.4252C128.846 77.2277 128.748 77.0302 128.748 76.8327ZM130.916 73.3762C130.916 73.7712 131.212 74.3638 131.804 74.8575C132.395 75.4501 133.085 75.7463 133.874 75.7463C134.662 75.7463 135.352 75.4501 135.944 74.7588C136.535 74.1662 136.831 73.3762 136.831 72.5861V69.9197C136.831 69.1297 136.535 68.4384 135.944 67.8458C135.352 67.2533 134.662 66.957 133.874 66.957C133.085 66.957 132.395 67.2533 131.804 67.8458C131.212 68.4384 130.916 69.1297 130.916 70.0185V73.3762Z" fill="#F2F2F2"/>
<path d="M41.9957 87.8933V84.5356C41.9957 83.7455 42.1929 83.153 42.5872 82.758C42.9815 82.3629 43.573 82.1654 44.2631 82.1654C44.9532 82.1654 45.5447 82.3629 45.939 82.6592C46.3333 83.0542 46.5305 83.4492 46.5305 83.943C46.5305 84.1405 46.5305 84.2393 46.4319 84.3381C46.3333 84.4368 46.3333 84.4368 46.1362 84.4368C45.939 84.4368 45.7418 84.338 45.7418 84.1405C45.7418 84.0418 45.7418 83.943 45.7418 83.8443C45.7418 83.7455 45.6432 83.6468 45.6432 83.4492C45.5447 83.3505 45.4461 83.2517 45.3475 83.153C45.2489 83.0542 45.0518 82.9555 44.9532 82.9555C44.756 82.8567 44.5589 82.8567 44.2631 82.8567C43.1787 82.8567 42.6858 83.4492 42.6858 84.5356V87.8933C42.6858 88.9796 43.1787 89.5721 44.2631 89.5721C44.5589 89.5721 44.8546 89.5721 45.0518 89.4734C45.2489 89.3746 45.4461 89.2759 45.5447 89.0784C45.6433 88.8808 45.7418 88.7821 45.7418 88.6833C45.7418 88.5846 45.8404 88.3871 45.8404 88.2883C45.8404 88.0908 45.939 87.992 46.2347 87.992C46.3333 87.992 46.4319 87.992 46.5305 88.0908C46.6291 88.1896 46.6291 88.2883 46.6291 88.4858C46.6291 88.9796 46.4319 89.4734 46.0376 89.7697C45.6433 90.1647 45.0518 90.2634 44.3617 90.2634C43.6716 90.2634 43.1787 90.0659 42.6858 89.6709C42.1929 89.2759 41.9957 88.6833 41.9957 87.8933Z" fill="#F2F2F2"/>
<path d="M48.305 89.8684V82.0666C48.305 81.9678 48.305 81.9678 48.4035 81.8691C48.5021 81.7703 48.6007 81.7703 48.6993 81.7703C48.7979 81.7703 48.8965 81.7703 48.995 81.8691C49.0936 81.9678 49.0936 81.9678 49.0936 82.0666V85.7206C49.1922 85.5231 49.3894 85.3256 49.6851 85.128C49.9809 84.9305 50.2766 84.9305 50.5723 84.9305C51.0652 84.9305 51.5582 85.128 51.9525 85.5231C52.3468 85.9181 52.544 86.4119 52.544 87.0044V89.9671C52.544 90.0659 52.544 90.1646 52.4454 90.1646C52.3468 90.2634 52.2482 90.2634 52.1496 90.2634C52.0511 90.2634 51.9525 90.2634 51.9525 90.1646C51.8539 90.0659 51.8539 90.0659 51.8539 89.9671V87.1032C51.8539 86.7081 51.7553 86.4119 51.4596 86.1156C51.1638 85.8193 50.8681 85.7206 50.4738 85.7206C50.178 85.7206 49.7837 85.8193 49.5865 86.1156C49.2908 86.4119 49.1922 86.7081 49.1922 87.1032V89.8684C49.1922 89.9671 49.1922 89.9671 49.0936 90.0659C48.995 90.1646 48.8965 90.1646 48.7979 90.1646C48.6993 90.1646 48.6007 90.1646 48.5021 90.0659C48.4035 89.9671 48.305 89.9671 48.305 89.8684Z" fill="#F2F2F2"/>
<path d="M54.2198 88.1896V86.9057C54.2198 86.3132 54.417 85.9182 54.8113 85.5231C55.2057 85.1281 55.6986 84.9306 56.2901 84.9306C56.8815 84.9306 57.3745 85.1281 57.7688 85.5231C58.1631 85.9182 58.3603 86.4119 58.3603 86.9057C58.3603 87.1032 58.3603 87.3008 58.2617 87.3995C58.2617 87.4983 58.1631 87.597 58.0645 87.6958C57.9659 87.7945 57.8674 87.7945 57.7688 87.7945C57.6702 87.7945 57.5716 87.7945 57.3745 87.7945H54.9099V88.1896C54.9099 88.5846 55.1071 88.9796 55.4028 89.1771C55.6986 89.4734 56.0929 89.5721 56.5858 89.5721C56.8816 89.5721 57.0787 89.5721 57.2759 89.4734C57.473 89.3746 57.5716 89.3746 57.6702 89.2759C57.7688 89.1771 57.8674 89.1771 57.8674 89.1771C57.9659 89.1771 58.0645 89.1771 58.0645 89.2759C58.1631 89.3746 58.1631 89.4734 58.1631 89.4734C58.1631 89.6709 57.9659 89.7697 57.6702 89.9672C57.3745 90.1647 56.9801 90.1647 56.4872 90.1647C55.7972 90.1647 55.2057 89.9672 54.8113 89.5721C54.417 89.2759 54.2198 88.7821 54.2198 88.1896ZM54.9099 87.3008H57.0787C57.2759 87.3008 57.473 87.3008 57.473 87.202C57.5716 87.202 57.5716 87.1032 57.5716 86.9057C57.5716 86.5107 57.473 86.2144 57.1773 85.9182C56.8816 85.6219 56.5858 85.5231 56.1915 85.5231C55.7972 85.5231 55.5014 85.6219 55.2057 85.9182C54.9099 86.2144 54.8113 86.5107 54.8113 86.807V87.3008H54.9099Z" fill="#F2F2F2"/>
<path d="M60.0362 89.8684V85.2269C60.0362 85.1281 60.0362 85.1281 60.1347 85.0294C60.2333 84.9306 60.3319 84.9306 60.4305 84.9306C60.5291 84.9306 60.6277 84.9306 60.6277 85.0294C60.7262 85.1281 60.7262 85.1281 60.7262 85.2269V85.7207C60.8248 85.5231 61.022 85.2269 61.3177 85.1281C61.6135 84.9306 61.9092 84.9306 62.205 84.9306C62.5993 84.9306 62.895 85.0294 63.1908 85.2269C63.4865 85.4244 63.6837 85.7206 63.7823 86.0169C63.9794 85.6219 64.1766 85.4244 64.4723 85.2269C64.7681 85.0294 65.0638 84.9306 65.4581 84.9306C65.9511 84.9306 66.3454 85.1281 66.7397 85.5231C67.134 85.9182 67.3312 86.4119 67.3312 87.0045V89.9671C67.3312 90.0659 67.3312 90.0659 67.2326 90.1647C67.134 90.2634 67.0354 90.2634 66.9369 90.2634C66.8383 90.2634 66.7397 90.2634 66.7397 90.1647C66.6411 90.0659 66.6411 90.0659 66.6411 89.9671V87.1032C66.6411 86.7082 66.5425 86.3132 66.2468 86.1157C65.951 85.8194 65.7539 85.7207 65.3596 85.7207C65.0638 85.7207 64.7681 85.8194 64.4723 86.1157C64.1766 86.4119 64.078 86.7082 64.078 87.1032V90.0659C64.078 90.2634 63.9794 90.3622 63.6837 90.3622C63.4865 90.3622 63.2893 90.2634 63.2893 90.0659V87.1032C63.2893 86.7082 63.1908 86.4119 62.895 86.1157C62.6979 85.8194 62.4021 85.7207 62.0078 85.7207C61.712 85.7207 61.3177 85.8194 61.1206 86.1157C60.8248 86.4119 60.7262 86.7082 60.7262 87.1032V89.8684C60.7262 89.9672 60.7262 89.9671 60.6277 90.0659C60.5291 90.1647 60.4305 90.1647 60.3319 90.1647C60.2333 90.1647 60.1347 90.1647 60.0362 90.0659C60.1347 90.0659 60.0362 89.9672 60.0362 89.8684Z" fill="#F2F2F2"/>
<path d="M69.3028 83.3505C69.2042 83.2518 69.2042 83.153 69.2042 83.0543C69.2042 82.9555 69.2042 82.8567 69.3028 82.758C69.4014 82.6592 69.5 82.6592 69.6971 82.6592C69.7957 82.6592 69.8943 82.6592 69.9929 82.758C70.0915 82.8567 70.0915 82.9555 70.0915 83.0543C70.0915 83.153 70.0915 83.2518 69.9929 83.3505C69.8943 83.4493 69.7957 83.4493 69.6971 83.4493C69.5 83.4493 69.4014 83.4493 69.3028 83.3505ZM69.3028 89.8684V85.2269C69.3028 85.1281 69.3028 85.1281 69.4014 85.0294C69.5 84.9306 69.5986 84.9306 69.6971 84.9306C69.7957 84.9306 69.8943 84.9306 69.9929 85.0294C70.0915 85.1281 70.0915 85.1281 70.0915 85.2269V89.8684C70.0915 89.9672 70.0915 89.9672 69.9929 90.0659C69.8943 90.1647 69.7957 90.1647 69.6971 90.1647C69.5986 90.1647 69.5 90.1647 69.4014 90.0659C69.3028 90.0659 69.3028 89.9672 69.3028 89.8684Z" fill="#F2F2F2"/>
<path d="M71.8659 88.1896V87.0045C71.8659 86.4119 72.0631 85.9182 72.3588 85.5231C72.7532 85.1281 73.2461 84.9306 73.9361 84.9306C74.3305 84.9306 74.7248 85.0294 75.0205 85.1281C75.3163 85.3256 75.4149 85.4244 75.4149 85.6219C75.4149 85.7206 75.4149 85.8194 75.3163 85.8194C75.2177 85.9182 75.2177 85.9182 75.1191 85.9182C75.1191 85.9182 75.0205 85.9182 74.922 85.8194C74.8234 85.7207 74.7248 85.7206 74.5276 85.6219C74.3305 85.5231 74.1333 85.5231 73.9361 85.5231C73.4432 85.5231 73.1475 85.6219 72.8518 85.9182C72.6546 86.2144 72.4574 86.5107 72.4574 86.9057V88.0908C72.4574 88.5846 72.556 88.8809 72.8518 89.1771C73.0489 89.4734 73.4432 89.5721 73.9361 89.5721C74.2319 89.5721 74.4291 89.5721 74.5276 89.4734C74.7248 89.3746 74.8234 89.3746 74.922 89.2759C75.0205 89.1771 75.1191 89.1771 75.1191 89.1771C75.2177 89.1771 75.3163 89.1771 75.3163 89.2759C75.3163 89.3746 75.4149 89.4734 75.4149 89.4734C75.4149 89.6709 75.2177 89.7697 74.922 89.9672C74.6262 90.1647 74.2319 90.1647 73.739 90.1647C73.0489 90.1647 72.556 89.9672 72.1617 89.5721C71.9645 89.2759 71.8659 88.7821 71.8659 88.1896Z" fill="#F2F2F2"/>
<path d="M76.795 88.7821C76.795 88.1896 76.9922 87.7945 77.4851 87.597C77.8794 87.3995 78.5695 87.3008 79.3582 87.3008H79.9496V87.0045C79.9496 86.6094 79.8511 86.3132 79.6539 86.0169C79.4567 85.7206 79.161 85.6219 78.6681 85.6219C78.3723 85.6219 78.0766 85.7206 77.8794 85.8194C77.6823 85.9182 77.4851 86.0169 77.4851 86.0169C77.3865 86.0169 77.288 86.0169 77.288 85.9182C77.1894 85.8194 77.1894 85.7206 77.1894 85.6219C77.1894 85.5231 77.3865 85.3256 77.6823 85.2269C77.978 85.1281 78.3723 85.0293 78.6681 85.0293C79.3582 85.0293 79.8511 85.2269 80.1468 85.6219C80.4426 86.0169 80.6397 86.5107 80.6397 87.1032V89.8684C80.6397 89.9672 80.6397 89.9672 80.5411 90.0659C80.4426 90.1647 80.344 90.1647 80.2454 90.1647C80.1468 90.1647 80.0482 90.1647 80.0482 90.0659C80.0482 89.9672 79.9496 89.9672 79.9496 89.8684V89.3746C79.4567 89.9672 78.8653 90.2635 78.2738 90.2635C77.8794 90.2635 77.4851 90.1647 77.1894 89.8684C76.9922 89.6709 76.795 89.2759 76.795 88.7821ZM77.4851 88.7821C77.4851 89.0784 77.5837 89.2759 77.7809 89.4734C77.978 89.6709 78.1752 89.6709 78.4709 89.6709C78.7667 89.6709 79.161 89.5722 79.4567 89.2759C79.7525 88.9796 79.9496 88.7821 79.9496 88.4858V87.7945H79.4567C79.161 87.7945 78.9638 87.7945 78.7667 87.7945C78.5695 87.7945 78.3723 87.8933 78.1752 87.8933C77.978 87.992 77.7809 88.0908 77.6823 88.1896C77.5837 88.3871 77.4851 88.4858 77.4851 88.7821Z" fill="#F2F2F2"/>
<path d="M82.7099 89.8683V82.0666C82.7099 81.9678 82.7099 81.9678 82.8085 81.8691C82.9071 81.7703 83.0057 81.7703 83.1043 81.7703C83.2028 81.7703 83.3014 81.7703 83.4 81.8691C83.4986 81.9678 83.4986 81.9678 83.4986 82.0666V89.8683C83.4986 89.9671 83.4986 89.9671 83.4 90.0659C83.3014 90.1646 83.2028 90.1646 83.1043 90.1646C83.0057 90.1646 82.9071 90.1646 82.9071 90.0659C82.7099 90.0659 82.7099 89.9671 82.7099 89.8683Z" fill="#F2F2F2"/>
<path d="M88.5262 89.8684V82.3629C88.5262 82.1654 88.6248 82.0666 88.9205 82.0666C89.2163 82.0666 89.3149 82.1654 89.3149 82.3629V89.4734H92.4695C92.6666 89.4734 92.6666 89.5721 92.6666 89.7696C92.6666 89.9672 92.5681 90.0659 92.4695 90.0659H88.9205C88.822 90.0659 88.7234 90.0659 88.7234 89.9672C88.6248 90.0659 88.5262 89.9672 88.5262 89.8684Z" fill="#F2F2F2"/>
<path d="M93.751 88.7821C93.751 88.1896 93.9482 87.7945 94.4411 87.597C94.8354 87.3995 95.5255 87.3008 96.3142 87.3008H96.9057V87.0045C96.9057 86.6094 96.8071 86.3132 96.6099 86.0169C96.4127 85.7206 96.117 85.6219 95.6241 85.6219C95.3283 85.6219 95.0326 85.7206 94.8354 85.8194C94.6383 85.9182 94.4411 86.0169 94.4411 86.0169C94.3425 86.0169 94.2439 86.0169 94.2439 85.9182C94.1454 85.8194 94.1454 85.7206 94.1454 85.6219C94.1454 85.5231 94.3425 85.3256 94.6383 85.2269C94.934 85.1281 95.3283 85.0293 95.6241 85.0293C96.3142 85.0293 96.8071 85.2269 97.1028 85.6219C97.3986 86.0169 97.5957 86.5107 97.5957 87.1032V89.8684C97.5957 89.9672 97.5957 89.9672 97.4971 90.0659C97.3986 90.1647 97.3 90.1647 97.2014 90.1647C97.1028 90.1647 97.0042 90.1647 97.0042 90.0659C96.9057 89.9672 96.9057 89.9672 96.9057 89.8684V89.3746C96.4127 89.9672 95.8213 90.2635 95.2298 90.2635C94.8354 90.2635 94.4411 90.1647 94.1454 89.8684C93.9482 89.6709 93.751 89.2759 93.751 88.7821ZM94.4411 88.7821C94.4411 89.0784 94.5397 89.2759 94.7369 89.4734C94.934 89.6709 95.1312 89.6709 95.4269 89.6709C95.7227 89.6709 96.117 89.5722 96.4127 89.2759C96.7085 88.9796 96.9057 88.7821 96.9057 88.4858V87.7945H96.4127C96.117 87.7945 95.9198 87.7945 95.7227 87.7945C95.5255 87.7945 95.3283 87.8933 95.1312 87.8933C94.934 87.992 94.7369 88.0908 94.6383 88.1896C94.5397 88.3871 94.4411 88.4858 94.4411 88.7821Z" fill="#F2F2F2"/>
<path d="M99.5674 89.8684V82.0666C99.5674 81.9678 99.5674 81.9678 99.666 81.8691C99.7645 81.7703 99.8631 81.7703 99.9617 81.7703C100.06 81.7703 100.159 81.7703 100.257 81.8691C100.356 81.9678 100.356 81.9678 100.356 82.0666V85.7206C100.455 85.5231 100.652 85.2268 100.948 85.128C101.243 84.9305 101.539 84.9305 101.835 84.9305C102.328 84.9305 102.821 85.128 103.215 85.5231C103.609 85.9181 103.806 86.4119 103.806 87.0044V88.1895C103.806 88.782 103.609 89.1771 103.215 89.6709C102.821 90.0659 102.328 90.2634 101.835 90.2634C101.539 90.2634 101.243 90.1646 100.948 89.9671C100.652 89.7696 100.455 89.5721 100.356 89.3746V89.8684C100.356 89.9671 100.356 89.9671 100.257 90.0659C100.159 90.1646 100.159 90.1646 100.06 90.1646C99.9617 90.1646 99.8631 90.1646 99.7645 90.0659C99.666 89.9671 99.5674 89.9671 99.5674 89.8684ZM100.257 88.4858C100.257 88.6833 100.356 88.8808 100.652 89.1771C100.948 89.4733 101.243 89.5721 101.539 89.5721C101.933 89.5721 102.229 89.4733 102.525 89.1771C102.821 88.8808 102.919 88.5845 102.919 88.1895V87.0044C102.919 86.6094 102.821 86.3131 102.525 86.0169C102.229 85.7206 101.933 85.6218 101.539 85.6218C101.145 85.6218 100.849 85.7206 100.652 86.0169C100.356 86.3131 100.257 86.6094 100.257 87.0044V88.4858Z" fill="#F2F2F2"/>
<path d="M105.285 88.1896V87.0045C105.285 86.4119 105.482 86.0169 105.877 85.5231C106.271 85.1281 106.764 84.9306 107.355 84.9306C107.947 84.9306 108.44 85.1281 108.834 85.5231C109.228 85.9182 109.426 86.4119 109.426 87.0045V88.1896C109.426 88.7821 109.228 89.1771 108.834 89.6709C108.44 90.0659 107.947 90.2634 107.355 90.2634C106.764 90.2634 106.369 90.0659 105.877 89.6709C105.581 89.1771 105.285 88.6833 105.285 88.1896ZM106.074 88.1896C106.074 88.5846 106.172 88.8809 106.468 89.1771C106.764 89.4734 107.06 89.5721 107.454 89.5721C107.848 89.5721 108.144 89.4734 108.44 89.1771C108.735 88.8809 108.834 88.5846 108.834 88.1896V87.0045C108.834 86.6095 108.735 86.3132 108.44 86.0169C108.144 85.7207 107.848 85.6219 107.454 85.6219C107.06 85.6219 106.764 85.7207 106.468 86.0169C106.172 86.3132 106.074 86.6095 106.074 87.0045V88.1896Z" fill="#F2F2F2"/>
<path d="M111.299 89.8684V85.2269C111.299 85.1281 111.299 85.1281 111.397 85.0294C111.496 84.9306 111.594 84.9306 111.693 84.9306C111.791 84.9306 111.89 84.9306 111.89 85.0294C111.989 85.1281 111.989 85.1281 111.989 85.2269V85.8194C112.087 85.6219 112.284 85.3256 112.58 85.2269C112.876 85.0294 113.172 84.9306 113.467 84.9306H113.862C113.96 84.9306 113.96 84.9306 114.059 85.0294C114.157 85.1281 114.157 85.1281 114.157 85.2269C114.157 85.3256 114.157 85.4244 114.059 85.4244C113.96 85.5231 113.96 85.5231 113.862 85.5231H113.467C113.073 85.5231 112.777 85.6219 112.482 85.9182C112.186 86.2144 112.087 86.6095 112.087 87.1032V89.8684C112.087 89.9672 112.087 89.9672 111.989 90.0659C111.89 90.1647 111.791 90.1647 111.693 90.1647C111.594 90.1647 111.496 90.1647 111.397 90.0659C111.299 89.9672 111.299 89.9672 111.299 89.8684Z" fill="#F2F2F2"/>
<path d="M115.242 88.7821C115.242 88.1896 115.439 87.7945 115.932 87.597C116.326 87.3995 117.016 87.3008 117.805 87.3008H118.396V87.0045C118.396 86.6094 118.298 86.3132 118.101 86.0169C117.904 85.7206 117.608 85.6219 117.115 85.6219C116.819 85.6219 116.523 85.7206 116.326 85.8194C116.129 85.9182 115.932 86.0169 115.932 86.0169C115.833 86.0169 115.735 86.0169 115.735 85.9182C115.636 85.8194 115.636 85.7206 115.636 85.6219C115.636 85.5231 115.833 85.3256 116.129 85.2269C116.425 85.1281 116.819 85.0293 117.115 85.0293C117.805 85.0293 118.298 85.2269 118.594 85.6219C118.889 86.0169 119.086 86.5107 119.086 87.1032V89.8684C119.086 89.9672 119.086 89.9672 118.988 90.0659C118.889 90.1647 118.791 90.1647 118.692 90.1647C118.594 90.1647 118.495 90.1647 118.495 90.0659C118.495 89.9672 118.396 89.9672 118.396 89.8684V89.3746C117.904 89.9672 117.312 90.2635 116.721 90.2635C116.326 90.2635 115.932 90.1647 115.636 89.8684C115.34 89.6709 115.242 89.2759 115.242 88.7821ZM115.932 88.7821C115.932 89.0784 116.03 89.2759 116.228 89.4734C116.425 89.6709 116.622 89.6709 116.918 89.6709C117.213 89.6709 117.608 89.5722 117.904 89.2759C118.199 88.9796 118.396 88.7821 118.396 88.4858V87.7945H117.904C117.608 87.7945 117.411 87.7945 117.213 87.7945C117.016 87.7945 116.819 87.8933 116.622 87.8933C116.425 87.992 116.228 88.0908 116.129 88.1896C116.03 88.3871 115.932 88.4858 115.932 88.7821Z" fill="#F2F2F2"/>
<path d="M121.058 88.5846V82.8567C121.058 82.758 121.058 82.758 121.157 82.6592C121.255 82.5605 121.354 82.5605 121.354 82.5605C121.452 82.5605 121.551 82.5605 121.65 82.6592C121.748 82.758 121.748 82.758 121.748 82.8567V85.0294H123.128C123.227 85.0294 123.227 85.0294 123.326 85.1281C123.326 85.2269 123.424 85.2269 123.424 85.3256C123.424 85.4244 123.424 85.5231 123.326 85.5231C123.326 85.6219 123.227 85.6219 123.128 85.6219H121.748V88.5846C121.748 88.9796 121.847 89.1771 121.945 89.3746C122.143 89.4734 122.34 89.5721 122.734 89.5721H123.03C123.128 89.5721 123.227 89.5722 123.227 89.6709C123.326 89.7697 123.326 89.7697 123.326 89.8684C123.326 89.9672 123.326 90.0659 123.227 90.0659C123.128 90.1647 123.128 90.1647 123.03 90.1647H122.734C121.65 90.1647 121.058 89.6709 121.058 88.5846Z" fill="#F2F2F2"/>
<path d="M124.706 88.1896V87.0045C124.706 86.4119 124.903 86.0169 125.297 85.5231C125.691 85.1281 126.184 84.9306 126.776 84.9306C127.367 84.9306 127.86 85.1281 128.255 85.5231C128.649 85.9182 128.846 86.4119 128.846 87.0045V88.1896C128.846 88.7821 128.649 89.1771 128.255 89.6709C127.86 90.0659 127.367 90.2634 126.776 90.2634C126.184 90.2634 125.79 90.0659 125.297 89.6709C124.903 89.1771 124.706 88.6833 124.706 88.1896ZM125.396 88.1896C125.396 88.5846 125.494 88.8809 125.79 89.1771C126.086 89.4734 126.382 89.5721 126.776 89.5721C127.17 89.5721 127.466 89.4734 127.762 89.1771C128.057 88.8809 128.156 88.5846 128.156 88.1896V87.0045C128.156 86.6095 128.057 86.3132 127.762 86.0169C127.466 85.7207 127.17 85.6219 126.776 85.6219C126.382 85.6219 126.086 85.7207 125.79 86.0169C125.494 86.3132 125.396 86.6095 125.396 87.0045V88.1896Z" fill="#F2F2F2"/>
<path d="M130.621 89.8684V85.2269C130.621 85.1281 130.621 85.1281 130.719 85.0294C130.818 84.9306 130.916 84.9306 131.015 84.9306C131.113 84.9306 131.212 84.9306 131.212 85.0294C131.311 85.1281 131.311 85.1281 131.311 85.2269V85.8194C131.409 85.6219 131.606 85.3256 131.902 85.2269C132.198 85.0294 132.494 84.9306 132.789 84.9306H133.184C133.282 84.9306 133.282 84.9306 133.381 85.0294C133.479 85.1281 133.479 85.1281 133.479 85.2269C133.479 85.3256 133.479 85.4244 133.381 85.4244C133.282 85.5231 133.282 85.5231 133.184 85.5231H132.789C132.395 85.5231 132.099 85.6219 131.804 85.9182C131.508 86.2144 131.409 86.6095 131.409 87.1032V89.8684C131.409 89.9672 131.409 89.9672 131.311 90.0659C131.212 90.1647 131.113 90.1647 131.015 90.1647C130.916 90.1647 130.818 90.1647 130.719 90.0659C130.621 89.9672 130.621 89.9672 130.621 89.8684Z" fill="#F2F2F2"/>
<path d="M134.367 85.2269C134.367 85.1281 134.367 85.0294 134.465 85.0294C134.564 85.0294 134.662 84.9306 134.761 84.9306C134.86 84.9306 134.958 85.0294 135.057 85.1281L136.535 89.1771L137.916 85.1281C137.916 85.0294 138.014 84.9306 138.113 84.9306C138.211 84.9306 138.31 84.9306 138.408 85.0294C138.507 85.1281 138.507 85.2269 138.507 85.2269V85.3256L136.831 89.9672L136.634 90.461C136.634 90.5597 136.535 90.7572 136.437 90.9547C136.338 91.251 136.24 91.3498 136.141 91.4485L135.845 91.8435C135.747 92.0411 135.648 92.1398 135.451 92.2386C135.352 92.3373 135.155 92.4361 135.057 92.4361C134.86 92.5348 134.761 92.5348 134.564 92.5348C134.367 92.5348 134.268 92.4361 134.268 92.2386C134.268 92.0411 134.367 91.9423 134.465 91.9423C134.761 91.9423 135.155 91.7448 135.352 91.3498C135.648 90.9547 135.845 90.461 136.043 89.8684L134.367 85.2269C134.367 85.3256 134.367 85.3256 134.367 85.2269Z" fill="#F2F2F2"/>
</svg>
