<svg width="35" height="35" viewBox="0 0 35 35" fill="none" xmlns="http://www.w3.org/2000/svg">
<path d="M35 17.0333C35 26.4444 27.3 34.0667 17.8111 34.0667C14.8167 34.0667 11.9778 33.2889 9.48889 31.9278L0 35L3.11111 25.8611C1.55556 23.2944 0.661111 20.2611 0.661111 17.0722C0.622222 7.62222 8.32222 0 17.8111 0C27.3 0 35 7.62222 35 17.0333ZM17.8111 2.72222C9.83889 2.72222 3.38333 9.13889 3.38333 17.0333C3.38333 20.1833 4.39444 23.0611 6.14444 25.4333L4.35556 30.7611L9.91667 29.0111C12.2111 30.5278 14.9333 31.3833 17.85 31.3833C25.7833 31.3833 32.2778 24.9667 32.2778 17.0333C32.2778 9.1 25.7833 2.72222 17.8111 2.72222ZM26.4833 20.9611C26.3667 20.8056 26.0944 20.6889 25.6667 20.4556C25.2389 20.2611 23.1778 19.25 22.7889 19.0944C22.4 18.9389 22.1278 18.9 21.8556 19.2889C21.5833 19.7167 20.7667 20.65 20.5333 20.9222C20.3 21.1944 20.0278 21.2333 19.6389 21.0389C19.2111 20.8444 17.85 20.3778 16.2556 18.9778C15.0111 17.8889 14.1556 16.4889 13.9222 16.1C13.6889 15.6722 13.8833 15.4389 14.1167 15.2444C14.3111 15.05 14.5444 14.7389 14.7389 14.5056C14.9333 14.2722 15.0111 14.0778 15.1667 13.8056C15.3222 13.5333 15.2444 13.3 15.1278 13.0667C15.0111 12.8722 14.1944 10.8111 13.8444 9.95556C13.4944 9.13889 13.1444 9.25556 12.9111 9.25556C12.6778 9.25556 12.3667 9.21667 12.0944 9.21667C11.8222 9.21667 11.3556 9.33333 10.9667 9.72222C10.5778 10.15 9.48889 11.1611 9.48889 13.2222C9.48889 15.2833 11.0056 17.2667 11.2 17.5389C11.3944 17.8111 14.1167 22.1667 18.3944 23.8389C22.6722 25.5111 22.6722 24.9667 23.45 24.8889C24.2278 24.8111 25.9389 23.8778 26.2889 22.9056C26.6 21.9722 26.6 21.1556 26.4833 20.9611Z" fill="#6ECB98"/>
</svg>
