<svg width="375" height="570" viewBox="0 0 375 570" fill="none" xmlns="http://www.w3.org/2000/svg">
<g clip-path="url(#clip0)">
<path d="M419.06 33.2837V150.281C416.045 187.599 394.936 220.883 362.77 240.046C353.723 245.089 343.671 249.124 333.619 252.15V142.212C333.619 102.877 355.733 65.5589 389.91 45.3869C398.957 39.3353 409.009 36.3095 419.06 33.2837ZM449.216 0C422.076 0 396.946 7.06019 375.837 19.1634C333.619 43.3697 304.469 89.7653 304.469 141.204V284.425C330.604 284.425 355.733 277.365 376.842 265.261C417.05 242.064 445.195 199.702 448.211 151.29V29.2494C448.211 15.129 460.273 3.0258 475.351 3.0258C476.356 3.0258 477.361 3.0258 478.367 3.0258C468.315 1.0086 458.263 0 449.216 0Z" fill="#6ECB98"/>
<path d="M169.773 169.444C206.965 172.47 240.137 193.651 259.235 225.926C264.261 235.003 268.282 245.089 271.297 255.175H161.732C122.529 255.175 85.3373 232.986 65.2335 198.694C60.2076 189.616 56.1868 179.53 53.1713 169.444H169.773V169.444ZM23.0156 110.946C21.0052 120.023 20 130.109 20 139.187V140.195C20 166.419 27.0363 191.634 39.0986 212.814C63.2232 255.175 109.462 284.425 160.727 284.425H303.464C303.464 258.201 296.427 232.986 284.365 211.806C261.246 171.462 219.028 143.221 170.778 140.195H49.1505C35.0779 140.195 23.0156 128.092 23.0156 112.963C23.0156 112.963 23.0156 111.954 23.0156 110.946Z" fill="#FFDA00"/>
<path d="M274.313 317.709V427.646C274.313 466.981 252.199 504.299 218.022 524.471C208.976 529.514 198.924 533.549 188.872 536.574V419.577C191.887 382.259 212.996 348.975 245.163 329.812C255.214 324.769 264.261 320.734 274.313 317.709ZM303.464 284.425C277.329 284.425 252.199 291.485 231.09 303.588C190.882 326.786 162.737 369.147 159.721 417.56V540.609C159.721 554.729 147.659 566.832 132.581 566.832C131.576 566.832 130.571 566.832 129.566 566.832C138.612 568.85 148.664 569.858 157.711 569.858H158.716C184.851 569.858 209.981 562.798 231.09 550.695C273.308 526.488 302.458 480.093 302.458 428.654V284.425H303.464Z" fill="#D85C72"/>
<path d="M446.201 313.674C485.403 313.674 522.595 335.863 542.699 370.156C547.725 379.233 551.746 389.319 554.761 399.405H438.159C400.967 396.379 367.796 375.199 348.697 342.924C343.671 333.846 339.65 323.76 336.635 313.674H446.201ZM446.201 284.425H303.464C303.464 310.648 310.5 335.863 322.562 357.044C345.682 397.388 387.9 425.629 436.149 428.654H558.782C572.855 428.654 584.917 440.758 584.917 455.887C584.917 456.895 584.917 457.904 584.917 458.912C586.927 449.835 587.932 439.749 587.932 430.672V429.663C587.932 403.439 580.896 378.224 568.834 357.044C543.704 313.674 498.471 284.425 446.201 284.425Z" fill="#5B87DA"/>
</g>
<defs>
<clipPath id="clip0">
<rect width="375" height="570" fill="white"/>
</clipPath>
</defs>
</svg>
