<svg width="33" height="29" viewBox="0 0 33 29" fill="none" xmlns="http://www.w3.org/2000/svg">
<path d="M19.5883 10.6439C16.5147 10.6439 14.0225 13.1425 14.0225 16.224C14.0225 19.3056 16.5147 21.8042 19.5883 21.8042C22.662 21.8042 25.1541 19.3056 25.1541 16.224C25.1541 13.1425 22.662 10.6439 19.5883 10.6439ZM19.5883 20.5216C17.2125 20.5216 15.2852 18.5894 15.2852 16.2074C15.2852 13.8254 17.2125 11.8932 19.5883 11.8932C21.9642 11.8932 23.8914 13.8254 23.8914 16.2074C23.8914 18.5894 21.9642 20.5216 19.5883 20.5216Z"/>
<path d="M19.5883 13.3757C19.2394 13.3757 18.957 13.6588 18.957 14.0086C18.957 14.3584 19.2394 14.6416 19.5883 14.6416C20.4523 14.6416 21.1667 15.3579 21.1667 16.224C21.1667 16.5738 21.4491 16.857 21.798 16.857C22.1469 16.857 22.4294 16.5738 22.4294 16.224C22.4294 14.6416 21.1667 13.3757 19.5883 13.3757Z"/>
<path d="M3.88779 4.78059C3.72165 4.4641 3.33952 4.3475 3.04046 4.51407C2.72479 4.68064 2.60849 5.06376 2.77463 5.36358L4.46929 8.66169C4.58559 8.87823 4.80158 9.01149 5.03418 9.01149C5.26678 9.01149 5.48277 8.86157 5.59907 8.64503L6.62916 6.49627L7.74232 8.66169C7.85862 8.87823 8.0746 9.01149 8.3072 9.01149H8.32382C8.55642 9.01149 8.77241 8.86157 8.88871 8.64503L10.4671 5.34693C10.6166 5.03044 10.4837 4.64733 10.168 4.49741C9.85234 4.3475 9.47021 4.48076 9.32068 4.79724L8.29059 6.94601L7.17743 4.78059C7.06113 4.56404 6.84514 4.43079 6.61254 4.43079C6.37994 4.43079 6.16395 4.5807 6.04765 4.79724L5.01756 6.94601L3.88779 4.78059Z"/>
<path d="M7.95825 1.26594C8.12439 1.26594 8.29054 1.19931 8.40684 1.08271C8.52314 0.966111 8.58959 0.79954 8.58959 0.632969C8.58959 0.466399 8.52314 0.299828 8.40684 0.183228C8.29054 0.0666284 8.12439 0 7.95825 0C7.79211 0 7.62596 0.0666284 7.50966 0.183228C7.39336 0.299828 7.3269 0.466399 7.3269 0.632969C7.3269 0.79954 7.39336 0.966111 7.50966 1.08271C7.62596 1.19931 7.79211 1.26594 7.95825 1.26594Z" />
<path d="M32.3647 10.8937V2.53188C32.3647 1.13268 31.235 0 29.8394 0H10.6166C10.2677 0 9.98522 0.283171 9.98522 0.63297C9.98522 0.982768 10.2677 1.26594 10.6166 1.26594H29.8227C30.5205 1.26594 31.0854 1.83228 31.0854 2.53188V10.8937C31.0854 11.5933 30.5205 12.1597 29.8227 12.1597H26.7823C26.7657 12.1597 26.7491 12.1597 26.7325 12.1597C25.7522 10.444 24.1739 9.09477 22.2964 8.42849L23.2268 6.47961L24.34 8.64503C24.4563 8.86157 24.6723 8.99483 24.9049 8.99483H24.9215C25.1541 8.99483 25.3701 8.84492 25.4864 8.62837L27.0648 5.33027C27.2143 5.01378 27.0814 4.63067 26.7657 4.48076C26.45 4.33084 26.0679 4.4641 25.9184 4.78059L24.8883 6.92935L23.7751 4.76393C23.6588 4.54739 23.4428 4.41413 23.2102 4.41413C22.9776 4.41413 22.7616 4.56404 22.6453 4.78059L21.6153 6.92935L20.5021 4.76393C20.3359 4.44744 19.9538 4.33084 19.6548 4.49742C19.3391 4.66399 19.2228 5.0471 19.3889 5.34693L20.7845 8.06203C20.4024 8.01206 20.0037 7.97875 19.6049 7.97875C18.824 7.97875 18.0764 8.09535 17.362 8.29523L18.7742 5.34693C18.9237 5.03044 18.7908 4.64733 18.4751 4.49742C18.1595 4.3475 17.7773 4.48076 17.6278 4.79724L16.5977 6.94601L15.4846 4.78059C15.3683 4.56404 15.1523 4.43079 14.9197 4.43079C14.6871 4.43079 14.4711 4.5807 14.3548 4.79724L13.3247 6.94601L12.2115 4.78059C12.0454 4.4641 11.6633 4.3475 11.3642 4.51407C11.0485 4.68064 10.9322 5.06376 11.0984 5.36358L12.7764 8.66169C12.8927 8.87823 13.1087 9.01149 13.3413 9.01149C13.5739 9.01149 13.7899 8.86157 13.9062 8.64503L14.9363 6.49627L16.0494 8.66169C16.0661 8.695 16.0993 8.72832 16.1159 8.76163C14.5708 9.47789 13.2915 10.6772 12.4441 12.1597H2.52538C1.82758 12.1597 1.26269 11.5933 1.26269 10.8937V2.53188C1.26269 1.83228 1.82758 1.26594 2.52538 1.26594H5.11722C5.46612 1.26594 5.74856 0.982768 5.74856 0.63297C5.74856 0.283171 5.46612 0 5.11722 0H2.52538C1.12977 0 0 1.13268 0 2.53188V10.8937C0 12.2929 1.12977 13.4256 2.52538 13.4256H11.8626C11.547 14.2918 11.3808 15.2412 11.3808 16.2074C11.3808 20.7547 15.0692 24.436 19.5883 24.436C21.0836 24.436 22.4792 24.0362 23.6754 23.3366L28.693 28.367C29.1083 28.7835 29.6566 29 30.2049 29C30.7531 29 31.3014 28.7835 31.7168 28.367C32.5475 27.5342 32.5475 26.1683 31.7168 25.3354L29.7397 23.3532C29.4904 23.1034 29.0917 23.1034 28.8425 23.3532C28.5933 23.6031 28.5933 24.0029 28.8425 24.2527L30.8196 26.2349C31.1685 26.5847 31.1685 27.1344 30.8196 27.4842C30.4707 27.834 29.9224 27.834 29.5735 27.4842L24.7221 22.6203C26.5829 21.1045 27.7792 18.7892 27.7792 16.2074C27.7792 15.2246 27.613 14.2918 27.2974 13.4256H29.8061C31.2183 13.4256 32.3647 12.2929 32.3647 10.8937ZM19.5883 23.1867C15.7504 23.1867 12.6435 20.0551 12.6435 16.224C12.6435 12.3929 15.767 9.26134 19.5883 9.26134C23.4096 9.26134 26.5331 12.3929 26.5331 16.224C26.5331 20.0551 23.4262 23.1867 19.5883 23.1867Z"/>
<path d="M27.3638 21.8707C27.2475 21.9873 27.181 22.1539 27.181 22.3205C27.181 22.487 27.2475 22.6536 27.3638 22.7702C27.4801 22.8868 27.6462 22.9534 27.8124 22.9534C27.9785 22.9534 28.1447 22.8868 28.261 22.7702C28.3773 22.6536 28.4437 22.487 28.4437 22.3205C28.4437 22.1539 28.3773 21.9873 28.261 21.8707C28.1447 21.7541 27.9785 21.6875 27.8124 21.6875C27.6462 21.6875 27.4801 21.7541 27.3638 21.8707Z" />
</svg>
